<?xml version="1.0" encoding="UTF-8" standalone="no"?>
<svg
   xmlns:dc="http://purl.org/dc/elements/1.1/"
   xmlns:cc="http://creativecommons.org/ns#"
   xmlns:rdf="http://www.w3.org/1999/02/22-rdf-syntax-ns#"
   xmlns:svg="http://www.w3.org/2000/svg"
   xmlns="http://www.w3.org/2000/svg"
   viewBox="0 0 3332.9468 1944.2267"
   xml:space="preserve"
   id="svg2"
   version="1.1"><metadata
     id="metadata8"><rdf:RDF><cc:Work
         rdf:about=""><dc:format>image/svg+xml</dc:format><dc:type
           rdf:resource="http://purl.org/dc/dcmitype/StillImage" /><dc:title></dc:title></cc:Work></rdf:RDF></metadata><defs
     id="defs6" /><g
     transform="matrix(1.3333333,0,0,-1.3333333,0,1944.2267)"
     id="g10"><g
       transform="scale(0.1)"
       id="g12"><g
         transform="scale(1.4353)"
         id="g24"><path
           id="path26"
           style="fill:#ffffff;fill-opacity:1;fill-rule:evenodd;stroke:none"
           d="M 16300,832.23 H 1115.93 V 9624.46 H 16300 V 832.23" /></g><g
         transform="scale(1.26046)"
         id="g28"><path
           id="path30"
           style="fill:#dcf4fd;fill-opacity:1;fill-rule:evenodd;stroke:none"
           d="m 1264.25,10961.1 3227.97,-2.1 C 4625.07,9778.07 5654.51,9137.39 7047.36,9339.84 9654.65,9718.79 8864.07,7263.77 9803.09,6475.12 10680.9,5737.87 11083.6,6220.81 11998.2,5515.05 12912.8,4809.41 12513.8,3284.2 13432,3135.2 14962.7,2886.88 15299.1,2945.27 16300,1792.28 H 1264.25 v 9168.82" /></g><g
         transform="scale(1.08487)"
         id="g32"><path
           id="path34"
           style="fill:#c1ebfb;fill-opacity:1;fill-rule:evenodd;stroke:none"
           d="m 16300,2081.74 c 0,0 -706.7,599.15 -1276.1,370.73 -569.4,-228.41 -799.3,52.36 -1094.2,359.49 -294.9,307.14 -340.4,408.81 -649.8,505.32 -340.1,106.09 -726.9,-7.65 -829.2,-90.61 -102.3,-82.96 -378.5,-375.62 -576,19.73 -197.4,395.34 -127.6,308.6 -428.3,212.74 -180.1,-57.33 -813.5,-366.87 -1125.3,56.41 -138.5,187.77 -392.22,451.58 -699.07,412.68 -306.86,-38.81 -417.39,-134.21 -594.46,-224.91 -177.05,-90.61 -427.16,6.45 -583.57,90.7 -216.45,116.42 -569.52,288.05 -788.12,90.61 -326.14,-294.6 -332.21,-437.1 -867.36,-189.98 -200.36,92.55 -504.05,125.27 -831.04,-116.51 -473.73,-350.27 -554.12,-548.73 -1373.05,-461.99 -1087.25,115.13 -901.7,-707.46 -1389.76,-671.15 -370.31,27.47 -872.62,-77.98 -1085.71,-362.62 -17.73,33.09 14191.04,-0.64 14191.04,-0.64" /></g><path
         id="path104"
         style="fill:#86cff2;fill-opacity:1;fill-rule:evenodd;stroke:none"
         d="m 4216.76,5464.63 c -47.86,-261.78 80.24,-532.49 313.07,-661.45 384.23,-212.91 856.53,10.7 935.61,442.9 47.73,261.71 -80.23,532.38 -313.01,661.26 -384.33,212.95 -856.69,-10.47 -935.67,-442.71 z m -587.6,569.44 114.73,-41.04 c 47.98,-17.08 101.94,-0.53 131.08,41.16 56.64,80.61 122.34,152.65 195.37,215.48 38.58,33.36 49.91,88.58 28,134.6 l -51.94,110.26 c -27.09,57.1 -2.84,125.41 54.25,152.49 l 211.05,99.83 c 57.15,27.03 125.41,2.52 152.45,-54.61 l 52.16,-110.17 c 21.87,-46.16 71.68,-72.44 121.89,-63.67 94.88,16.69 192.33,21.75 290.48,14.41 50.84,-3.85 97.64,27.3 114.78,75.43 l 41.12,114.69 c 21.22,59.57 86.8,90.44 146.31,69.24 l 219.81,-78.62 c 59.53,-21.18 90.48,-86.73 69.27,-146.27 l -41.01,-114.74 c -17.12,-47.97 -0.68,-101.91 41,-131.15 80.6,-56.52 152.63,-122.25 215.47,-195.16 33.31,-38.82 88.57,-49.96 134.73,-28.15 l 110.17,52.15 c 57.12,27.05 125.39,2.7 152.29,-54.53 l 99.97,-210.97 c 27.07,-57.15 2.55,-125.35 -54.58,-152.43 l -110.16,-52.14 c -46.14,-21.84 -72.48,-71.74 -63.53,-121.9 16.51,-94.89 21.6,-192.36 14.39,-290.51 -4.01,-50.81 27.28,-97.65 75.23,-114.9 l 114.75,-40.98 c 59.54,-21.21 90.48,-86.74 69.25,-146.3 l -78.59,-219.78 c -21.34,-59.55 -86.76,-90.5 -146.34,-69.29 l -114.68,41.02 c -48.02,17.1 -101.8,0.66 -131.24,-41.11 -56.31,-80.54 -122.16,-152.51 -195.08,-215.41 -38.85,-33.3 -50.01,-88.6 -28.27,-134.7 L 5636,4216.1 c 27.09,-57.1 2.58,-125.3 -54.55,-152.4 l -210.82,-99.9 c -57.24,-27 -125.49,-2.5 -152.59,54.6 l -51.99,110.2 c -21.97,46.2 -71.72,72.5 -122.07,63.6 -94.84,-16.6 -192.32,-21.8 -290.31,-14.4 -50.81,3.9 -97.95,-27.3 -115.04,-75.3 l -41.01,-114.7 c -21.19,-59.6 -86.76,-90.6 -146.29,-69.3 l -219.87,78.5 c -59.35,21.3 -90.42,86.9 -69.24,146.5 l 41.14,114.6 c 17.13,48 0.56,101.8 -41.22,131.3 -80.46,56.4 -152.49,122.2 -215.33,195.05 -33.28,38.67 -88.46,49.98 -134.63,28.13 l -110.14,-52.18 c -57.25,-27 -125.53,-2.6 -152.6,54.51 l -99.77,211.06 c -27.09,57.1 -2.74,125.39 54.53,152.43 l 110.21,52.15 c 46.12,21.86 72.38,71.57 63.66,121.9 -16.83,94.9 -21.89,192.33 -14.43,290.44 3.75,50.87 -27.24,97.69 -75.3,114.82 l -114.83,41.14 c -59.53,21.19 -90.59,86.77 -69.24,146.28 l 78.63,219.82 c 21.19,59.53 86.73,90.49 146.26,69.12" /><path
         id="path106"
         style="fill:#ffffff;fill-opacity:1;fill-rule:evenodd;stroke:none"
         d="m 5028.81,6188.92 c -220.31,47.86 -448.6,6.62 -638.26,-115.35 -189.32,-121.74 -321.92,-312.89 -369.7,-532.83 -47.86,-220.32 -6.62,-448.62 115.35,-638.26 121.75,-189.33 312.89,-321.88 532.83,-369.68 220.33,-47.9 448.6,-6.7 638.28,115.33 189.33,121.75 321.92,312.87 369.69,532.82 47.87,220.33 6.62,448.61 -115.35,638.27 -121.75,189.33 -312.9,321.94 -532.84,369.7 z m 489.43,-397.69 c 114.54,-178.09 153.26,-392.4 108.32,-599.29 C 5581.67,4985.37 5457.14,4805.87 5279.3,4691.52 5101.2,4577 4886.91,4538.3 4680,4583.22 c -206.56,44.88 -386.03,169.41 -500.4,347.24 -114.53,178.11 -153.23,392.42 -108.3,599.29 44.87,206.58 169.43,386.06 347.25,500.41 178.09,114.52 392.39,153.27 599.29,108.3 206.57,-44.87 386.05,-169.42 500.4,-347.23" /><path
         id="path108"
         style="fill:#ffffff;fill-opacity:1;fill-rule:nonzero;stroke:none"
         d="m 5596.97,5946.28 c -59.1,74.69 -128.92,139.77 -206.67,193.34 -16.96,11.66 -34.3,22.77 -51.99,33.34 l 15.81,26.17 c 18.21,-10.9 36.09,-22.36 53.55,-34.38 79.41,-54.69 150.78,-121.06 211.39,-197.13 z m -1041.38,313.61 c -183.94,-60.06 -339.69,-173.16 -452.95,-318.55 l -22.33,21.07 c 116.88,149.12 277.15,265.06 466.27,326.72 z M 4518.26,4468 c 156.07,-58.7 329.61,-77 505.52,-44.6 6.88,1.3 13.71,2.6 20.52,4 l 0.42,-31.1 -15.33,-3 c -179.44,-33 -356.48,-15 -516.1,43.9 l 4.97,30.8" /><path
         id="path110"
         style="fill:#86cff2;fill-opacity:1;fill-rule:evenodd;stroke:none"
         d="m 2718.62,6814.54 c 38.02,-178.61 190.01,-316.9 371.43,-337.89 299.41,-34.71 540.67,230.54 477.93,525.42 -38.08,178.53 -189.99,316.82 -371.34,337.8 -299.49,34.71 -540.83,-230.45 -478.02,-525.33 z m -521.59,207.81 83.52,3.93 c 34.91,1.67 64.82,26.26 72.42,60.34 14.88,65.93 37.74,128.82 67.67,187.76 15.76,31.25 8.52,69.25 -17.4,92.72 l -61.77,56.39 c -32.1,29.15 -34.56,78.83 -5.41,110.92 l 107.83,118.47 c 29.2,32.09 78.92,34.36 111,5.2 l 61.87,-56.28 c 25.94,-23.57 64.4,-27.24 93.96,-8.56 55.85,35.37 116.36,64.04 180.55,85.02 33.25,10.83 54.83,42.84 53.12,77.85 l -3.87,83.51 c -2.09,43.33 31.44,80.07 74.73,82.16 l 160.01,7.54 c 43.31,2.11 80.07,-31.38 82.17,-74.72 l 3.95,-83.52 c 1.68,-34.9 26.19,-64.84 60.28,-72.51 65.9,-14.79 128.78,-37.69 187.7,-67.52 31.27,-15.92 69.24,-8.58 92.83,17.34 l 56.27,61.88 c 29.19,32.08 78.87,34.46 110.89,5.16 l 118.54,-107.73 c 32.09,-29.18 34.35,-78.88 5.18,-110.98 l -56.27,-61.86 c -23.56,-25.91 -27.24,-64.46 -8.46,-93.96 35.26,-55.87 63.95,-116.39 85.02,-180.55 10.74,-33.25 42.82,-54.83 77.75,-53.24 l 83.5,3.98 c 43.33,2.09 80.08,-31.39 82.17,-74.75 l 7.55,-159.98 c 2.02,-43.36 -31.41,-80.08 -74.76,-82.18 l -83.47,-3.95 c -34.93,-1.67 -64.76,-26.15 -72.52,-60.35 -14.7,-65.8 -37.67,-128.7 -67.52,-187.63 -15.94,-31.27 -8.58,-69.25 17.25,-92.84 l 61.95,-56.26 c 32.11,-29.17 34.38,-78.88 5.2,-110.96 l -107.67,-118.43 c -29.25,-32.13 -78.96,-34.39 -111.08,-5.24 l -61.75,56.31 c -26.02,23.57 -64.45,27.24 -94.06,8.45 -55.86,-35.29 -116.33,-64.05 -180.46,-84.92 -33.25,-10.81 -55,-42.94 -53.31,-77.88 l 3.95,-83.47 c 2.12,-43.35 -31.38,-80.18 -74.73,-82.18 l -160,-7.62 c -43.22,-2 -80.08,31.49 -82.19,74.83 l -3.86,83.48 c -1.66,34.94 -26.23,64.74 -60.44,72.51 -65.8,14.8 -128.67,37.71 -187.58,67.52 -31.22,15.85 -69.18,8.61 -92.78,-17.31 l -56.24,-61.86 c -29.27,-32.12 -78.96,-34.5 -111.06,-5.31 l -118.45,107.85 c -32.09,29.16 -34.49,78.85 -5.22,110.96 l 56.31,61.88 c 23.54,25.93 27.23,64.34 8.54,93.99 -35.47,55.8 -64.13,116.3 -85.03,180.5 -10.9,33.25 -42.8,54.85 -77.77,53.18 l -83.61,-3.9 c -43.29,-2.1 -80.14,31.41 -82.14,74.73 l -7.54,160.01 c -2.09,43.3 31.4,80.08 74.74,82.08" /><path
         id="path112"
         style="fill:#ffffff;fill-opacity:1;fill-rule:evenodd;stroke:none"
         d="m 3278.08,7486.97 c -153.5,33.35 -312.55,4.62 -444.71,-80.37 -131.91,-84.82 -224.28,-218 -257.56,-371.23 -33.37,-153.53 -4.63,-312.57 80.35,-444.73 84.83,-131.89 218.01,-224.28 371.25,-257.57 153.5,-33.35 312.55,-4.62 444.7,80.36 131.93,84.84 224.3,218.01 257.59,371.25 33.35,153.51 4.62,312.57 -80.36,444.7 -84.84,131.9 -218.02,224.32 -371.26,257.59 z m 341.01,-277.09 c 79.8,-124.09 106.77,-273.4 75.46,-417.54 -31.26,-143.92 -118.04,-268.99 -241.94,-348.65 -124.1,-79.82 -273.4,-106.79 -417.56,-75.47 -143.92,31.27 -268.96,118.04 -348.64,241.93 -79.79,124.09 -106.78,273.4 -75.46,417.57 31.26,143.92 118.04,268.96 241.93,348.64 124.09,79.79 273.39,106.78 417.55,75.47 143.94,-31.28 268.96,-118.05 348.66,-241.95" /><path
         id="path114"
         style="fill:#ffffff;fill-opacity:1;fill-rule:nonzero;stroke:none"
         d="m 3673.95,7317.92 c -41.19,52.05 -89.83,97.38 -144,134.69 -11.82,8.14 -23.91,15.87 -36.23,23.25 l 11.02,18.22 c 12.7,-7.58 25.13,-15.57 37.3,-23.94 55.33,-38.11 105.07,-84.35 147.29,-137.36 z m -725.59,218.51 c -128.15,-41.86 -236.66,-120.65 -315.58,-221.95 l -15.56,14.68 c 81.43,103.91 193.1,184.66 324.86,227.63 z m -26,-1248.5 c 108.74,-40.88 229.65,-53.65 352.22,-31.06 4.78,0.89 9.55,1.84 14.29,2.82 l 0.3,-21.71 -10.69,-2.05 c -125.02,-23.04 -248.38,-10.46 -359.6,30.56 l 3.48,21.44" /><path
         id="path116"
         style="fill:#273372;fill-opacity:1;fill-rule:evenodd;stroke:none"
         d="m 4174.1,2329.8 h 11302.1 c 27.3,0 49.6,-22.3 49.6,-49.6 v 0 c 0,-27.2 -22.3,-49.5 -49.6,-49.5 H 4174.1 c -27.25,0 -49.54,22.3 -49.54,49.5 v 0 c 0,27.3 22.29,49.6 49.54,49.6" /><path
         id="path118"
         style="fill:#2a3c93;fill-opacity:1;fill-rule:evenodd;stroke:none"
         d="M 6502.81,8641.28 H 13541 c 252.3,0 458.7,-206.41 458.7,-458.7 V 4080.2 H 6044.09 v 4102.38 c 0,252.29 206.42,458.7 458.72,458.7" /><path
         id="path120"
         style="fill:#ecf9fd;fill-opacity:1;fill-rule:evenodd;stroke:none"
         d="m 6378.52,8303.19 h 7286.78 c 4.4,0 8,-3.59 8,-8.01 V 3666.2 c 0,-4.4 -3.6,-8 -8,-8 H 6378.52 c -4.42,0 -8.02,3.6 -8.02,8 v 4628.98 c 0,4.42 3.6,8.01 8.02,8.01" /><path
         id="path122"
         style="fill:#9fc2e9;fill-opacity:1;fill-rule:evenodd;stroke:none"
         d="m 9398.76,3394.5 c -32.31,-584.1 -117.79,-731.8 -710.15,-1064.7 h 1312.99 1313 c -592.4,332.9 -677.9,480.6 -710.2,1064.7 l -602.8,47.5 -602.84,-47.5" /><path
         id="path124"
         style="fill:#ffffff;fill-opacity:1;fill-rule:evenodd;stroke:none"
         d="m 13999.7,4080.2 v -301.4 c 0,-252.3 -206.4,-458.7 -458.7,-458.7 H 6502.8 c -252.29,0 -458.71,206.4 -458.71,458.7 v 301.4 h 7955.61" /><path
         id="path126"
         style="fill:#2a3c93;fill-opacity:1;fill-rule:evenodd;stroke:none"
         d="m 6044.1,3895.5 h 7955.6 v 482 H 6044.1 v -482" /><path
         id="path128"
         style="fill:#e61d25;fill-opacity:1;fill-rule:evenodd;stroke:none"
         d="m 9682.49,3770.3 c 45.11,0 81.68,-36.5 81.68,-81.7 0,-45.1 -36.57,-81.6 -81.68,-81.6 -45.12,0 -81.69,36.5 -81.69,81.6 0,45.2 36.57,81.7 81.69,81.7" /><path
         id="path130"
         style="fill:#64a7df;fill-opacity:1;fill-rule:evenodd;stroke:none"
         d="m 9984.92,3770.3 c 45.08,0 81.68,-36.5 81.68,-81.7 0,-45.1 -36.6,-81.6 -81.68,-81.6 -45.13,0 -81.69,36.5 -81.69,81.6 0,45.2 36.56,81.7 81.69,81.7" /><path
         id="path132"
         style="fill:#64a7df;fill-opacity:1;fill-rule:evenodd;stroke:none"
         d="m 10287.4,3770.3 c 45.1,0 81.6,-36.5 81.6,-81.7 0,-45.1 -36.5,-81.6 -81.6,-81.6 -45.2,0 -81.7,36.5 -81.7,81.6 0,45.2 36.5,81.7 81.7,81.7" /><path
         id="path134"
         style="fill:#3549a5;fill-opacity:1;fill-rule:evenodd;stroke:none"
         d="M 6596.95,7829.68 H 8690.12 V 4594.39 H 6596.95 v 3235.29" /><path
         id="path136"
         style="fill:#5388ce;fill-opacity:1;fill-rule:evenodd;stroke:none"
         d="m 6750.91,5217.23 h 1330.17 c 29.77,0 54.15,-24.35 54.15,-54.12 0,-29.81 -24.38,-54.16 -54.15,-54.16 H 6750.91 c -29.77,0 -54.14,24.35 -54.14,54.16 0,29.77 24.37,54.12 54.14,54.12" /><path
         id="path138"
         style="fill:#5388ce;fill-opacity:1;fill-rule:evenodd;stroke:none"
         d="m 6750.92,7666.39 h 494.9 c 29.78,0 54.15,-24.35 54.15,-54.13 0,-29.79 -24.37,-54.16 -54.15,-54.16 h -494.9 c -29.79,0 -54.15,24.37 -54.15,54.16 0,29.78 24.36,54.13 54.15,54.13" /><path
         id="path140"
         style="fill:#5388ce;fill-opacity:1;fill-rule:evenodd;stroke:none"
         d="M 6750.92,7360.5 H 8404.1 c 29.8,0 54.14,-24.35 54.14,-54.14 0,-29.78 -24.34,-54.15 -54.14,-54.15 H 6750.92 c -29.79,0 -54.15,24.37 -54.15,54.15 0,29.79 24.36,54.14 54.15,54.14" /><path
         id="path142"
         style="fill:#5388ce;fill-opacity:1;fill-rule:evenodd;stroke:none"
         d="M 6750.92,7068.37 H 8404.1 c 29.8,0 54.14,-24.36 54.14,-54.16 0,-29.77 -24.34,-54.12 -54.14,-54.12 H 6750.92 c -29.79,0 -54.15,24.35 -54.15,54.12 0,29.8 24.36,54.16 54.15,54.16" /><path
         id="path144"
         style="fill:#5388ce;fill-opacity:1;fill-rule:evenodd;stroke:none"
         d="m 6750.92,6776.24 h 450.23 c 29.79,0 54.15,-24.38 54.15,-54.15 0,-29.79 -24.36,-54.14 -54.15,-54.14 h -450.23 c -29.79,0 -54.15,24.35 -54.15,54.14 0,29.77 24.36,54.15 54.15,54.15" /><path
         id="path146"
         style="fill:#5388ce;fill-opacity:1;fill-rule:evenodd;stroke:none"
         d="m 7390.2,6776.24 h 450.24 c 29.78,0 54.14,-24.38 54.14,-54.15 0,-29.79 -24.36,-54.14 -54.14,-54.14 H 7390.2 c -29.78,0 -54.15,24.35 -54.15,54.14 0,29.77 24.37,54.15 54.15,54.15" /><path
         id="path148"
         style="fill:#5388ce;fill-opacity:1;fill-rule:evenodd;stroke:none"
         d="m 6750.92,6422.95 h 605.69 c 29.78,0 54.14,-24.37 54.14,-54.15 0,-29.79 -24.36,-54.15 -54.14,-54.15 h -605.69 c -29.79,0 -54.15,24.36 -54.15,54.15 0,29.78 24.36,54.15 54.15,54.15" /><path
         id="path150"
         style="fill:#5388ce;fill-opacity:1;fill-rule:evenodd;stroke:none"
         d="m 7568.13,6422.95 h 605.71 c 29.77,0 54.14,-24.37 54.14,-54.15 0,-29.79 -24.37,-54.15 -54.14,-54.15 h -605.71 c -29.78,0 -54.15,24.36 -54.15,54.15 0,29.78 24.37,54.15 54.15,54.15" /><path
         id="path152"
         style="fill:#5388ce;fill-opacity:1;fill-rule:evenodd;stroke:none"
         d="m 6750.92,6158.29 h 732.3 c 29.78,0 54.14,-24.36 54.14,-54.13 0,-29.79 -24.36,-54.16 -54.14,-54.16 h -732.3 c -29.79,0 -54.15,24.37 -54.15,54.16 0,29.77 24.36,54.13 54.15,54.13" /><path
         id="path154"
         style="fill:#5388ce;fill-opacity:1;fill-rule:evenodd;stroke:none"
         d="m 7713.05,6158.29 h 732.3 c 29.79,0 54.15,-24.36 54.15,-54.13 0,-29.79 -24.36,-54.16 -54.15,-54.16 h -732.3 c -29.78,0 -54.15,24.37 -54.15,54.16 0,29.77 24.37,54.13 54.15,54.13" /><path
         id="path156"
         style="fill:#5388ce;fill-opacity:1;fill-rule:evenodd;stroke:none"
         d="m 6750.92,5858.85 h 494.9 c 29.78,0 54.15,-24.38 54.15,-54.15 0,-29.78 -24.37,-54.14 -54.15,-54.14 h -494.9 c -29.79,0 -54.15,24.36 -54.15,54.14 0,29.77 24.36,54.15 54.15,54.15" /><path
         id="path158"
         style="fill:#5388ce;fill-opacity:1;fill-rule:evenodd;stroke:none"
         d="m 6750.92,5512.82 h 732.3 c 29.78,0 54.14,-24.36 54.14,-54.15 0,-29.78 -24.36,-54.13 -54.14,-54.13 h -732.3 c -29.79,0 -54.15,24.35 -54.15,54.13 0,29.79 24.36,54.15 54.15,54.15" /><path
         id="path160"
         style="fill:#5388ce;fill-opacity:1;fill-rule:evenodd;stroke:none"
         d="m 7713.05,5512.82 h 732.3 c 29.79,0 54.15,-24.36 54.15,-54.15 0,-29.78 -24.36,-54.13 -54.15,-54.13 h -732.3 c -29.78,0 -54.15,24.35 -54.15,54.13 0,29.79 24.37,54.15 54.15,54.15" /><path
         id="path162"
         style="fill:#5388ce;fill-opacity:1;fill-rule:nonzero;stroke:none"
         d="m 7227.15,8098.86 h 5846.15 c 20.1,0 38.4,-8.07 51.6,-21 13.3,-12.97 21.5,-30.86 21.5,-50.55 0,-19.67 -8.2,-37.58 -21.5,-50.55 -13.2,-12.93 -31.5,-21 -51.6,-21 H 7227.15 c -20.13,0 -38.45,8.07 -51.69,21 -13.23,12.97 -21.46,30.88 -21.46,50.55 0,19.69 8.23,37.58 21.46,50.55 13.24,12.93 31.56,21 51.69,21 z m 5846.15,-19.49 H 7227.15 c -14.62,0 -27.95,-5.87 -37.57,-15.31 -9.66,-9.41 -15.66,-22.46 -15.66,-36.75 0,-14.3 6,-27.32 15.66,-36.74 9.62,-9.45 22.95,-15.32 37.57,-15.32 h 5846.15 c 14.6,0 27.9,5.87 37.5,15.32 9.7,9.42 15.7,22.44 15.7,36.74 0,14.29 -6,27.34 -15.7,36.75 -9.6,9.44 -22.9,15.31 -37.5,15.31" /><path
         id="path164"
         style="fill:#5388ce;fill-opacity:1;fill-rule:evenodd;stroke:none"
         d="m 6845.93,8103.87 h 161.75 V 7950.7 h -161.75 v 153.17" /><path
         id="path166"
         style="fill:#5388ce;fill-opacity:1;fill-rule:evenodd;stroke:none"
         d="m 6596.95,8103.87 h 157.26 V 7950.7 h -157.26 v 153.17" /><path
         id="path168"
         style="fill:#6296d6;fill-opacity:1;fill-rule:evenodd;stroke:none"
         d="M 9372.67,3320.1 H 10620.4 V 3153.9 H 9372.67 v 166.2" /><path
         id="path170"
         style="fill:#161b3b;fill-opacity:1;fill-rule:evenodd;stroke:none"
         d="m 8469.05,9959.05 c -258.75,0 -468.5,-205.23 -468.5,-421.17 0,-215.96 153.94,-366.2 360.73,-409.97 h 576.27 v 409.97 c 0,232.6 -209.75,421.17 -468.5,421.17" /><path
         id="path172"
         style="fill:#3649a5;fill-opacity:1;fill-rule:evenodd;stroke:none"
         d="m 8937.55,8907.62 h -1.63 V 4377.5 h 4486.68 v 3428.09 1102.03 630.26 c 0,232.62 -209.8,421.17 -468.5,421.17 H 8469.05 c 258.76,0 468.5,-188.55 468.5,-421.17 z m -473.29,1051.4 v 0.03 h 4.79 z" /><path
         id="path174"
         style="fill:#f89e0e;fill-opacity:1;fill-rule:evenodd;stroke:none"
         d="m 4362.77,8130.49 c 134.54,-168.19 274.09,-395.51 324.78,-559.67 4.36,-14.1 14.28,-24.19 28.4,-31.36 l 439.32,11.74 c 19.94,9.06 33.55,21.9 38.14,40.3 39.88,158.73 347.35,653.82 343.37,652.35 59.55,106.69 92.14,230 88.65,360.68 -10.44,390.75 -338.88,698.98 -733.63,688.44 -394.74,-10.55 -706.24,-335.87 -695.81,-726.63 3.48,-130.05 42.21,-250.91 106.85,-353.96 21.24,-27.65 36.53,-54.35 59.93,-81.89" /><path
         id="path176"
         style="fill:#ffffff;fill-opacity:1;fill-rule:evenodd;stroke:none"
         d="m 4932.8,8085.56 -8.73,-0.18 -8.73,-0.28 v 0.17 c -28.11,-0.19 -56.02,1.05 -82.67,3.69 l 0.46,-17.57 14.12,-528.42 -48.79,-1.31 -14.12,528.43 -0.69,25.57 c -69.9,12.68 -123.77,36.87 -136.34,73.45 -8.31,24.22 -12.43,49.97 -9.91,75.51 2.18,22.35 9.41,43.9 22.02,62.52 10.91,16.07 25.75,29.54 43.21,38.17 75.41,20.22 129.51,-58.94 126.78,-134.9 l 1.77,-66.12 c 28.86,-2.08 60.02,-2.79 91.37,-2.2 31.33,1.08 62.42,3.46 91.13,7.1 l -1.77,66.09 c -6.78,75.7 43.01,157.62 119.4,141.49 17.9,-7.68 33.43,-20.36 45.19,-35.82 13.58,-17.92 21.95,-39.05 25.33,-61.26 3.87,-25.36 1.13,-51.31 -5.86,-75.91 -10.61,-37.21 -63.11,-64.26 -132.24,-80.62 l 0.69,-25.6 14.11,-528.41 -48.79,-1.3 -14.12,528.41 -0.46,17.58 c -26.47,-4.06 -54.3,-6.77 -82.36,-8.1 z m 127.92,130.15 c 7.08,107.9 82.62,112.09 94.43,35.44 2.57,-17.01 0.41,-34.67 -4.32,-51.16 -5.31,-18.57 -40.03,-33.02 -88.54,-42.92 z m -280.07,-7.48 c -12.83,107.34 -88.5,107.53 -96.18,30.34 -1.67,-17.13 1.43,-34.64 7.02,-50.84 6.31,-18.29 41.75,-30.86 90.74,-38.13 l -1.58,58.63" /><path
         id="path178"
         style="fill:#497fc9;fill-opacity:1;fill-rule:evenodd;stroke:none"
         d="m 4758.76,7541.57 343.51,9.18 c 48.36,1.29 88.96,-37.18 90.25,-85.55 v -0.02 c 0.28,-48.35 -37.21,-88.97 -85.56,-90.26 l -12.76,-0.34 c -4.43,-1.23 -7.64,-5.38 -7.5,-10.17 0.13,-4.79 3.55,-8.75 8.03,-9.77 29.86,0.8 45.99,-23.26 46.16,-53.09 v -0.02 c 0.17,-29.88 -22.99,-54.94 -52.85,-55.74 l -29.72,-0.8 c -4.43,-1.23 -7.64,-5.4 -7.51,-10.17 0.13,-4.81 3.54,-8.76 8.03,-9.79 18.02,-7.8 30.1,-24.83 33.9,-50.48 v -0.02 c 0.78,-28.59 -21.98,-52.6 -50.58,-53.37 l -200.45,-5.34 c -28.58,-0.77 -52.59,21.98 -53.36,50.58 v 0.02 c -0.69,26.2 18.37,48.57 43.57,52.69 4,1.55 6.82,5.49 6.7,10.02 -0.13,4.69 -3.32,8.57 -7.58,9.79 l -41.66,-1.11 c -29.86,-0.8 -54.96,22.98 -55.75,52.84 v 0.02 c -0.79,29.86 22.98,54.94 52.85,55.72 4.19,1.46 7.18,5.52 7.05,10.18 -0.13,4.68 -3.32,8.56 -7.58,9.78 l -22.49,-0.6 c -48.36,-1.3 -88.97,37.2 -90.26,85.55 v 0.02 c -1.3,48.37 37.2,88.96 85.56,90.25" /><path
         id="path180"
         style="fill:#fbca5a;fill-opacity:1;fill-rule:nonzero;stroke:none"
         d="m 5103.74,9130.78 c -35.48,15.04 -76.45,-1.51 -91.51,-36.99 -15.05,-35.46 1.48,-76.45 36.96,-91.5 86.89,-37.09 163.9,-104.95 221.86,-187.23 59.88,-84.96 98.65,-184.28 106.41,-280.07 3,-38.47 36.65,-67.22 75.12,-64.23 38.47,3.02 67.23,36.65 64.22,75.13 -9.79,120.96 -57.72,244.9 -131.55,349.67 -72.07,102.3 -169.66,187.47 -281.51,235.22" /><path
         id="path182"
         style="fill:#f89e0e;fill-opacity:1;fill-rule:evenodd;stroke:none"
         d="m 4910.71,9753.4 v 0 c 22.04,0 40.09,-18.03 40.09,-40.07 v -175.17 c 0,-22.05 -18.05,-40.09 -40.09,-40.09 v 0 c -22.06,0 -40.1,18.04 -40.1,40.09 v 175.17 c 0,22.04 18.04,40.07 40.1,40.07 z M 3972.63,8559.98 v 0 c 0,-22.05 -18.04,-40.1 -40.1,-40.1 h -175.17 c -22.05,0 -40.09,18.05 -40.09,40.1 v 0 c 0,22.05 18.04,40.11 40.09,40.11 h 175.17 c 22.06,0 40.1,-18.06 40.1,-40.11 z m 2131.52,0 v 0 c 0,-22.05 -18.06,-40.1 -40.1,-40.1 h -175.17 c -22.05,0 -40.1,18.05 -40.1,40.1 v 0 c 0,22.05 18.05,40.11 40.1,40.11 h 175.17 c 22.04,0 40.1,-18.06 40.1,-40.11 z m -159.9,596.73 v -0.01 c 11.03,-19.1 4.42,-43.75 -14.67,-54.77 l -151.71,-87.58 c -19.1,-11.02 -43.75,-4.43 -54.76,14.67 h -0.02 c -11.01,19.11 -4.41,43.74 14.69,54.79 l 151.7,87.58 c 19.09,11 43.74,4.41 54.77,-14.68 z m -2067.1,0 h 0.01 c 11.03,19.09 35.67,25.68 54.76,14.68 l 151.71,-87.58 c 19.1,-11.05 25.7,-35.68 14.68,-54.79 v 0 c -11.02,-19.1 -35.68,-25.69 -54.77,-14.67 l -151.71,87.58 c -19.09,11.02 -25.7,35.67 -14.68,54.78 z m 436.84,436.83 v 0 c 19.09,11.02 43.74,4.41 54.76,-14.68 l 87.6,-151.72 c 11.02,-19.09 4.42,-43.74 -14.68,-54.76 v 0 c -19.1,-11.04 -43.75,-4.43 -54.78,14.68 l -87.58,151.7 c -11.02,19.1 -4.42,43.75 14.68,54.78 z m 1193.44,0 0.01,-0.02 c 19.08,-11.01 25.69,-35.66 14.66,-54.76 l -87.58,-151.7 c -11.03,-19.11 -35.68,-25.72 -54.78,-14.68 h -0.01 c -19.1,11.02 -25.7,35.67 -14.67,54.76 l 87.59,151.72 c 11.03,19.09 35.68,25.7 54.78,14.68" /><path
         id="path184"
         style="fill:#f89e0e;fill-opacity:1;fill-rule:evenodd;stroke:none"
         d="m 13463.8,7323.13 h 1038.7 c 235.3,0 426.1,-190.74 426.1,-426.04 v -283.75 c 0,-235.32 -190.8,-426.01 -426.1,-426.01 h -811.6 l -227.1,-208.98 v 208.98 c -235.3,0 -426.1,190.69 -426.1,426.01 v 283.75 c 0,235.3 190.8,426.04 426.1,426.04" /><path
         id="path186"
         style="fill:#5f2e15;fill-opacity:1;fill-rule:nonzero;stroke:none"
         d="m 6538.72,2329.8 h -422.96 c -20.01,0 -36.3,14.9 -38.81,33.9 -0.36,2.7 -0.48,5.5 -0.25,8.2 l 17.18,222.2 c 0,0 17.62,8.1 42.25,13.9 14.62,3.5 26.95,14.1 31.37,28.5 0.31,1.1 0.58,2.1 0.86,3.2 9.71,42.8 71.35,56.4 82.72,14.6 1.5,-5.4 2.77,-10.7 3.87,-15.7 0.27,-1.2 0.54,-2.5 0.76,-3.7 1.83,-9 3.16,-17.3 4.08,-24.5 l 0.09,-0.5 c 2.29,-18.4 2.09,-30.2 2.09,-30.2 5.61,-7.1 11,-14.1 16.24,-21 2.7,-3.4 5.26,-6.8 7.83,-10.2 5.55,-7.2 10.95,-14.2 16.27,-21 2.47,-3.2 4.9,-6.2 7.36,-9.3 5.87,-7.3 11.66,-14.3 17.44,-20.8 2.61,-2.9 5.21,-5.8 7.89,-8.5 21.81,-23 43.8,-38.7 69.8,-42.3 45.86,-6.3 120.78,-11.3 156.98,-78.6 0.78,-1.4 1.36,-2.9 1.82,-4.3 5.32,-16.2 -6.88,-33.9 -24.88,-33.9" /><path
         id="path188"
         style="fill:#161b3b;fill-opacity:1;fill-rule:nonzero;stroke:none"
         d="m 6538.72,2329.8 h -422.96 c -20.01,0 -36.3,14.9 -38.81,33.9 h 486.65 c 5.32,-16.2 -6.88,-33.9 -24.88,-33.9" /><path
         id="path190"
         style="fill:#161b3b;fill-opacity:1;fill-rule:evenodd;stroke:none"
         d="m 6221.55,4978.61 c 59.54,-132.16 133.5,-255.6 303.93,-281.29 138.25,-20.82 632.8,216.38 651.29,340.79 18.49,124.42 -66.15,144.48 -66.15,144.48 0,0 -487.53,-224.46 -524.44,-212.14 -27.85,9.24 -163.24,137.22 -246.41,213.21 -17.69,16.15 -143.84,-148.18 -118.22,-205.05" /><path
         id="path192"
         style="fill:#161b3b;fill-opacity:1;fill-rule:evenodd;stroke:none"
         d="m 6176.34,5246.76 h -323.22 c -78.2,0 -190.87,-39.19 -238.21,-94.64 -67.83,-79.44 -41.38,-968.12 -20.68,-1091.92 l 23.7,-16.8 c 0,-495 -71.47,-1019 -46.52,-1492.4 l 195.48,-2.5 249.15,1229.6 118.97,260.5 203.29,16.3 55.09,7.4 -53.62,1121.36 c -44.83,37.73 -100.61,63.1 -163.43,63.1" /><path
         id="path194"
         style="fill:#161b3b;fill-opacity:1;fill-rule:evenodd;stroke:none"
         d="m 5812.41,4955.26 c 32.01,66.6 7.38,197.01 -60.43,226.28 -17.96,7.76 -55.27,21.83 -90,6.77 -210.54,-91.39 -320.84,-909.51 -285.87,-966.51 30.39,-49.6 27.74,-172.9 146.53,-131.4 72.66,25.3 156.09,586.76 289.77,864.86" /><path
         id="path196"
         style="fill:#bee5f8;fill-opacity:1;fill-rule:evenodd;stroke:none"
         d="m 6144.41,5246.76 c 21.38,-160.51 -55.54,-448.14 -74.08,-623.64 -5.62,13.8 -156.07,499.9 -170.7,623.64 h 146.03 c 33.03,0 70.56,4.02 98.75,0" /><path
         id="path198"
         style="fill:#f8c3d0;fill-opacity:1;fill-rule:evenodd;stroke:none"
         d="m 6230.03,5406.49 c 11.36,-75.37 -75.18,-132.83 -133.91,-127.81 v -34.47 l 3.02,-4.29 c 20.52,-53.33 -37.25,-87.6 -56.42,-105.93 -17.51,13.43 -111.16,38.91 -113.27,112.77 h 3.78 v 129.56 c -4.21,1.29 -8.75,3.13 -12.94,5.7 -12.94,7.87 -17.99,27.15 -14.52,47.03 3.46,19.87 31.07,6.43 31.07,6.43 h 0.01 c -23.95,58.94 -54.62,109.8 7.11,142.55 61.73,32.78 186.25,30.32 186.25,30.32 l 74.66,7.69 c -20.19,-32.09 17.64,-159.6 25.16,-209.55" /><path
         id="path200"
         style="fill:#ee657b;fill-opacity:1;fill-rule:evenodd;stroke:none"
         d="m 5985.77,5336.25 c 26.24,-70.32 51.16,-96.42 110.35,-104.49 v 47.87 c -22.6,2.2 -77.98,21.41 -110.35,56.62" /><path
         id="path202"
         style="fill:#161b3b;fill-opacity:1;fill-rule:evenodd;stroke:none"
         d="m 6365.84,4058.6 -388.28,1.5 70.93,-1514.1 245.66,-8 71.69,1520.6" /><path
         id="path204"
         style="fill:#5f2e15;fill-opacity:1;fill-rule:nonzero;stroke:none"
         d="m 5837.94,2361.7 c -3.58,-63.2 -227.82,-41.5 -263.69,-22.5 -13.85,7.4 -19.64,21.5 -20.73,38.6 -1.76,27.3 8.43,62.2 17.25,89.6 14.36,44.6 12.36,43.7 22.34,74.2 0,0 -2.57,49.5 70.89,68.5 73.5,18.9 100.43,-104.4 112.97,-128.2 11.5,-21.7 56.15,-51.5 60.76,-105 0.44,-4.8 0.51,-9.9 0.21,-15.2" /><path
         id="path206"
         style="fill:#161b3b;fill-opacity:1;fill-rule:nonzero;stroke:none"
         d="m 5835.07,2339.7 c -4.41,-41.1 -224.95,-36.9 -260.82,-17.9 -13.85,7.3 -19.64,34.6 -20.73,51.7 23.57,-11.9 65.11,-26.6 127.1,-27.6 76.07,-1.2 130.92,12.4 157.11,26.7 0.44,-4.8 -2.37,-27.6 -2.66,-32.9" /><path
         id="path208"
         style="fill:#161b3b;fill-opacity:1;fill-rule:evenodd;stroke:none"
         d="m 6288.18,5741.33 c 15.8,-80.31 -16.47,-152.1 -95.47,-165.25 -58.82,-9.82 -161.38,2.11 -207.26,-40.98 -22.73,-21.33 -22.55,-48.76 -6.05,-103.89 4.85,-16.2 12.39,-28.63 -12.4,-13.55 -11.37,6.93 -30.28,16.94 -37.64,12.24 -16.41,-10.43 -11.71,-36.83 -0.66,-46.42 4.94,-4.28 14.45,-10.9 14.45,-10.9 0,0 -31.57,-8.19 -60.53,15.2 -28.97,23.36 -113.45,94.03 -96.79,195.54 24.27,147.9 85.45,143.27 215.73,187.61 75.22,25.62 81.39,45.56 129.54,67.62 61.84,28.29 144.6,-33.72 157.08,-97.22" /><path
         id="path210"
         style="fill:#f08214;fill-opacity:1;fill-rule:evenodd;stroke:none"
         d="m 8586.85,5883.36 c 72.77,-85.16 -56.85,-379.57 -254.63,-506.63 -118.31,-76.01 -250.18,-142.87 -349.09,-151.9 -176.33,-16.15 -401.84,39.69 -502.91,68.4 L 5694.55,4288.9 l -234.01,-131.6 -56.96,-32 c -148.41,-83.5 -327.18,-23.6 -421.64,118 l -0.01,0.1 c -94.45,141.7 -30.32,338.1 118.09,421.61 l 56.96,32.04 234.01,131.6 1777.24,999.56 c 23.54,96.47 90.1,338.1 196.65,484.91 46.49,64.04 136.69,125.86 235.12,179.42 260.03,141.52 615.72,102.58 653.8,-0.58 l -208.79,-117.45 -194.6,-109.44 -145.34,-81.73 -12.28,-205.9 -12.28,-205.89 182.32,-96.44 182.31,-96.42 145.33,81.74 194.61,109.43 z M 5354.72,4445.3 c 31.2,-55.5 11.53,-125.8 -43.94,-156.9 -55.46,-31.2 -125.73,-11.6 -156.92,43.9 -31.2,55.5 -11.52,125.7 43.94,156.9 55.48,31.2 125.73,11.5 156.92,-43.9" /><path
         id="path212"
         style="fill:#f8c3d0;fill-opacity:1;fill-rule:evenodd;stroke:none"
         d="m 5366.42,4134.3 c 3.48,7.5 13.3,12.5 15.79,12.6 2.46,0 37.54,-1.8 37.54,-1.8 l -5.41,80.5 c 0,0 18.18,5.2 24.81,-12.9 6.65,-17.9 27.73,-52.9 27.73,-52.9 l -9.26,71.8 c 0,0 12.21,6 18.96,-5.4 6.75,-11.3 25.84,-52.3 25.84,-52.3 l 1.77,67 c 0,0 14.77,-20.4 19.07,-39.3 4.31,-18.9 8.54,-28.2 8.54,-28.2 l 11.49,56.4 c 0,0 12.64,-54.8 12.66,-56.7 0.62,-59.9 -28.99,-94.6 -81.56,-95.2 -16.22,-0.1 -112.04,47.8 -107.97,56.4" /><path
         id="path214"
         style="fill:#f8c3d0;fill-opacity:1;fill-rule:evenodd;stroke:none"
         d="m 7177.42,5221.4 c -9.73,-0.37 -19.74,-8.8 -20.9,-11.48 -1.17,-2.68 -15.36,-41.79 -15.36,-41.79 l -85.33,42.88 c 0,0 -14.01,-17.48 2.58,-32.97 16.59,-15.51 45.07,-54.6 45.07,-54.6 l -74.13,43.1 c 0,0 -12.09,-10.61 -2.81,-23.17 9.29,-12.58 45.23,-52.24 45.23,-52.24 l -73.93,28.85 c 0,0 15.52,-25.51 34.17,-38.9 18.63,-13.38 26.83,-22.24 26.83,-22.24 l -66.82,13.35 c 0,0 53.98,-38.96 56.06,-39.87 65.05,-28.17 116.58,-11.79 141.31,45.31 7.64,17.63 -0.67,144.23 -11.97,143.77" /><path
         id="path216"
         style="fill:#ffffff;fill-opacity:1;fill-rule:nonzero;stroke:none"
         d="m 13754.5,6551.59 -382.3,166.22 v 92.02 l 382.3,165.45 v -108.39 l -266.7,-101.94 266.7,-105.72 v -107.64" /><path
         id="path218"
         style="fill:#ffffff;fill-opacity:1;fill-rule:nonzero;stroke:none"
         d="m 13876.7,6478.55 138,576.61 h 80.3 l -139.6,-576.61 h -78.7" /><path
         id="path220"
         style="fill:#ffffff;fill-opacity:1;fill-rule:nonzero;stroke:none"
         d="m 14217.2,6551.21 v 107.63 l 267,104.99 -267,103.82 v 106.87 l 382.6,-165.45 v -91.26 l -382.6,-166.6" /><path
         id="path222"
         style="fill:#8bc8ef;fill-opacity:1;fill-rule:evenodd;stroke:none"
         d="m 9668.89,9222.57 -294.67,128.06 v 70.9 l 294.67,127.53 v -83.43 l -205.55,-78.61 205.55,-81.62 z m 93.91,-56.41 106.82,444.12 h 61.81 l -107.42,-444.12 z m 262.4,55.83 v 82.81 l 205.6,81.13 -205.6,80.32 v 82.21 l 294.7,-127.64 v -70.41 l -294.7,-128.42" /><path
         id="path224"
         style="fill:#f08214;fill-opacity:1;fill-rule:evenodd;stroke:none"
         d="m 9608.8,8850.37 h 670.5 c 21.8,0 39.7,-17.87 39.7,-39.74 0,-21.83 -17.9,-39.71 -39.7,-39.71 h -670.5 c -21.83,0 -39.7,17.88 -39.7,39.71 0,21.87 17.87,39.74 39.7,39.74" /><path
         id="path226"
         style="fill:#8bc8ef;fill-opacity:1;fill-rule:evenodd;stroke:none"
         d="m 10472.9,8850.37 h 368.8 c 21.8,0 39.7,-17.87 39.7,-39.74 0,-21.83 -17.9,-39.71 -39.7,-39.71 h -368.8 c -21.9,0 -39.7,17.88 -39.7,39.71 0,21.87 17.8,39.74 39.7,39.74" /><path
         id="path228"
         style="fill:#f08214;fill-opacity:1;fill-rule:evenodd;stroke:none"
         d="m 9830.37,8584.47 h 758.13 c 21.8,0 39.7,-17.86 39.7,-39.71 0,-21.85 -17.9,-39.74 -39.7,-39.74 h -758.13 c -21.84,0 -39.72,17.89 -39.72,39.74 0,21.85 17.88,39.71 39.72,39.71" /><path
         id="path230"
         style="fill:#8bc8ef;fill-opacity:1;fill-rule:evenodd;stroke:none"
         d="m 10795.4,8584.47 h 421.2 c 21.9,0 39.8,-17.86 39.8,-39.71 0,-21.85 -17.9,-39.74 -39.8,-39.74 h -421.2 c -21.8,0 -39.7,17.89 -39.7,39.74 0,21.85 17.9,39.71 39.7,39.71" /><path
         id="path232"
         style="fill:#8bc8ef;fill-opacity:1;fill-rule:evenodd;stroke:none"
         d="m 11429.5,8584.47 h 523.4 c 21.8,0 39.7,-17.86 39.7,-39.71 0,-21.85 -17.9,-39.74 -39.7,-39.74 h -523.4 c -21.9,0 -39.8,17.89 -39.8,39.74 0,21.85 17.9,39.71 39.8,39.71" /><path
         id="path234"
         style="fill:#8bc8ef;fill-opacity:1;fill-rule:evenodd;stroke:none"
         d="m 9830.38,8304.86 h 1007.92 c 21.8,0 39.7,-17.85 39.7,-39.7 0,-21.85 -17.9,-39.74 -39.7,-39.74 H 9830.38 c -21.85,0 -39.73,17.89 -39.73,39.74 0,21.85 17.88,39.7 39.73,39.7" /><path
         id="path236"
         style="fill:#f47498;fill-opacity:1;fill-rule:evenodd;stroke:none"
         d="m 11043.8,8304.86 h 483 c 21.9,0 39.7,-17.85 39.7,-39.7 0,-21.85 -17.8,-39.74 -39.7,-39.74 h -483 c -21.8,0 -39.7,17.89 -39.7,39.74 0,21.85 17.9,39.7 39.7,39.7" /><path
         id="path238"
         style="fill:#8bc8ef;fill-opacity:1;fill-rule:evenodd;stroke:none"
         d="m 11718.8,8304.86 h 793.1 c 21.9,0 39.7,-17.85 39.7,-39.7 0,-21.85 -17.8,-39.74 -39.7,-39.74 h -793.1 c -21.9,0 -39.8,17.89 -39.8,39.74 0,21.85 17.9,39.7 39.8,39.7" /><path
         id="path240"
         style="fill:#f47498;fill-opacity:1;fill-rule:evenodd;stroke:none"
         d="m 9830.38,8031.32 h 377.32 c 21.9,0 39.7,-17.85 39.7,-39.7 0,-21.87 -17.8,-39.74 -39.7,-39.74 h -377.32 c -21.85,0 -39.73,17.87 -39.73,39.74 0,21.85 17.88,39.7 39.73,39.7" /><path
         id="path242"
         style="fill:#8bc8ef;fill-opacity:1;fill-rule:evenodd;stroke:none"
         d="m 10392.8,8031.32 h 1342 c 21.8,0 39.7,-17.85 39.7,-39.7 0,-21.87 -17.9,-39.74 -39.7,-39.74 h -1342 c -21.9,0 -39.7,17.87 -39.7,39.74 0,21.85 17.8,39.7 39.7,39.7" /><path
         id="path244"
         style="fill:#f08214;fill-opacity:1;fill-rule:evenodd;stroke:none"
         d="m 9830.38,7767 h 1007.92 c 21.8,0 39.7,-17.86 39.7,-39.72 0,-21.84 -17.9,-39.73 -39.7,-39.73 H 9830.38 c -21.85,0 -39.73,17.89 -39.73,39.73 0,21.86 17.88,39.72 39.73,39.72" /><path
         id="path246"
         style="fill:#8bc8ef;fill-opacity:1;fill-rule:evenodd;stroke:none"
         d="m 11043.8,7767 h 483 c 21.9,0 39.7,-17.86 39.7,-39.72 0,-21.84 -17.8,-39.73 -39.7,-39.73 h -483 c -21.8,0 -39.7,17.89 -39.7,39.73 0,21.86 17.9,39.72 39.7,39.72" /><path
         id="path248"
         style="fill:#8bc8ef;fill-opacity:1;fill-rule:evenodd;stroke:none"
         d="m 11718.8,7767 h 793.1 c 21.9,0 39.7,-17.86 39.7,-39.72 0,-21.84 -17.8,-39.73 -39.7,-39.73 h -793.1 c -21.9,0 -39.8,17.89 -39.8,39.73 0,21.86 17.9,39.72 39.8,39.72" /><path
         id="path250"
         style="fill:#8bc8ef;fill-opacity:1;fill-rule:evenodd;stroke:none"
         d="m 9830.38,7488.9 h 1007.92 c 21.8,0 39.7,-17.87 39.7,-39.72 0,-21.86 -17.9,-39.73 -39.7,-39.73 H 9830.38 c -21.85,0 -39.73,17.87 -39.73,39.73 0,21.85 17.88,39.72 39.73,39.72" /><path
         id="path252"
         style="fill:#8bc8ef;fill-opacity:1;fill-rule:evenodd;stroke:none"
         d="m 11043.8,7488.9 h 483 c 21.9,0 39.7,-17.87 39.7,-39.72 0,-21.86 -17.8,-39.73 -39.7,-39.73 h -483 c -21.8,0 -39.7,17.87 -39.7,39.73 0,21.85 17.9,39.72 39.7,39.72" /><path
         id="path254"
         style="fill:#8bc8ef;fill-opacity:1;fill-rule:evenodd;stroke:none"
         d="m 9608.81,7226.11 h 809.69 c 21.9,0 39.8,-17.85 39.8,-39.72 0,-21.84 -17.9,-39.72 -39.8,-39.72 h -809.69 c -21.84,0 -39.71,17.88 -39.71,39.72 0,21.87 17.87,39.72 39.71,39.72" /><path
         id="path256"
         style="fill:#8bc8ef;fill-opacity:1;fill-rule:evenodd;stroke:none"
         d="m 10633.3,7226.11 h 452.1 c 21.8,0 39.7,-17.85 39.7,-39.72 0,-21.84 -17.9,-39.72 -39.7,-39.72 h -452.1 c -21.8,0 -39.7,17.88 -39.7,39.72 0,21.87 17.9,39.72 39.7,39.72" /><path
         id="path258"
         style="fill:#8bc8ef;fill-opacity:1;fill-rule:evenodd;stroke:none"
         d="m 9830.38,6900.69 h 1109.12 c 21.9,0 39.7,-17.88 39.7,-39.74 0,-21.83 -17.8,-39.7 -39.7,-39.7 H 9830.38 c -21.86,0 -39.73,17.87 -39.73,39.7 0,21.86 17.87,39.74 39.73,39.74" /><path
         id="path260"
         style="fill:#f08214;fill-opacity:1;fill-rule:evenodd;stroke:none"
         d="m 11156.8,6900.69 h 535.4 c 21.8,0 39.7,-17.88 39.7,-39.74 0,-21.83 -17.9,-39.7 -39.7,-39.7 h -535.4 c -21.8,0 -39.7,17.87 -39.7,39.7 0,21.86 17.9,39.74 39.7,39.74" /><path
         id="path262"
         style="fill:#8bc8ef;fill-opacity:1;fill-rule:evenodd;stroke:none"
         d="m 9830.38,6619.52 h 1015.22 c 21.9,0 39.7,-17.87 39.7,-39.71 0,-21.86 -17.8,-39.74 -39.7,-39.74 H 9830.38 c -21.85,0 -39.73,17.88 -39.73,39.74 0,21.84 17.88,39.71 39.73,39.71" /><path
         id="path264"
         style="fill:#8bc8ef;fill-opacity:1;fill-rule:evenodd;stroke:none"
         d="m 11052,6619.52 h 486.8 c 21.8,0 39.7,-17.87 39.7,-39.71 0,-21.86 -17.9,-39.74 -39.7,-39.74 H 11052 c -21.8,0 -39.7,17.88 -39.7,39.74 0,21.84 17.9,39.71 39.7,39.71" /><path
         id="path266"
         style="fill:#f47498;fill-opacity:1;fill-rule:evenodd;stroke:none"
         d="m 9830.37,6350.59 h 348.43 c 21.8,0 39.7,-17.87 39.7,-39.72 0,-21.85 -17.9,-39.74 -39.7,-39.74 h -348.43 c -21.84,0 -39.72,17.89 -39.72,39.74 0,21.85 17.88,39.72 39.72,39.72" /><path
         id="path268"
         style="fill:#8bc8ef;fill-opacity:1;fill-rule:evenodd;stroke:none"
         d="m 10367.1,6350.59 h 1369.4 c 21.9,0 39.7,-17.87 39.7,-39.72 0,-21.85 -17.8,-39.74 -39.7,-39.74 h -1369.4 c -21.8,0 -39.7,17.89 -39.7,39.74 0,21.85 17.9,39.72 39.7,39.72" /><path
         id="path270"
         style="fill:#f08214;fill-opacity:1;fill-rule:evenodd;stroke:none"
         d="m 9830.39,6075.53 h 867.01 c 21.9,0 39.8,-17.86 39.8,-39.72 0,-21.83 -17.9,-39.72 -39.8,-39.72 h -867.01 c -21.86,0 -39.74,17.89 -39.74,39.72 0,21.86 17.88,39.72 39.74,39.72" /><path
         id="path272"
         style="fill:#8bc8ef;fill-opacity:1;fill-rule:evenodd;stroke:none"
         d="m 10886.7,6075.53 h 410.1 c 21.9,0 39.7,-17.86 39.7,-39.72 0,-21.83 -17.8,-39.72 -39.7,-39.72 h -410.1 c -21.9,0 -39.8,17.89 -39.8,39.72 0,21.86 17.9,39.72 39.8,39.72" /><path
         id="path274"
         style="fill:#8bc8ef;fill-opacity:1;fill-rule:evenodd;stroke:none"
         d="m 11500.2,6075.53 h 1013.5 c 21.8,0 39.7,-17.86 39.7,-39.72 0,-21.83 -17.9,-39.72 -39.7,-39.72 h -1013.5 c -21.8,0 -39.7,17.89 -39.7,39.72 0,21.86 17.9,39.72 39.7,39.72" /><path
         id="path276"
         style="fill:#8bc8ef;fill-opacity:1;fill-rule:evenodd;stroke:none"
         d="m 9830.37,5815.79 h 348.43 c 21.8,0 39.7,-17.88 39.7,-39.73 0,-21.86 -17.9,-39.73 -39.7,-39.73 h -348.43 c -21.84,0 -39.72,17.87 -39.72,39.73 0,21.85 17.88,39.73 39.72,39.73" /><path
         id="path278"
         style="fill:#8bc8ef;fill-opacity:1;fill-rule:evenodd;stroke:none"
         d="m 10367.1,5815.79 h 1369.4 c 21.9,0 39.7,-17.88 39.7,-39.73 0,-21.86 -17.8,-39.73 -39.7,-39.73 h -1369.4 c -21.8,0 -39.7,17.87 -39.7,39.73 0,21.85 17.9,39.73 39.7,39.73" /><path
         id="path280"
         style="fill:#8bc8ef;fill-opacity:1;fill-rule:evenodd;stroke:none"
         d="m 9608.81,5531.99 h 809.69 c 21.9,0 39.8,-17.88 39.8,-39.73 0,-21.84 -17.9,-39.72 -39.8,-39.72 h -809.69 c -21.84,0 -39.71,17.88 -39.71,39.72 0,21.85 17.87,39.73 39.71,39.73" /><path
         id="path282"
         style="fill:#f08214;fill-opacity:1;fill-rule:evenodd;stroke:none"
         d="m 10633.3,5531.99 h 452.1 c 21.8,0 39.7,-17.88 39.7,-39.73 0,-21.84 -17.9,-39.72 -39.7,-39.72 h -452.1 c -21.8,0 -39.7,17.88 -39.7,39.72 0,21.85 17.9,39.73 39.7,39.73" /><path
         id="path284"
         style="fill:#8bc8ef;fill-opacity:1;fill-rule:evenodd;stroke:none"
         d="m 9668.89,4759.59 -294.67,128.01 v 70.91 l 294.67,127.53 v -83.4 l -205.55,-78.64 205.55,-81.62 z m 93.91,-56.43 106.82,444.1 h 61.81 l -107.42,-444.1 z m 262.4,55.82 v 82.8 l 205.6,81.12 -205.6,80.34 v 82.21 l 294.7,-127.65 v -70.4 l -294.7,-128.42" /><path
         id="path286"
         style="fill:#f18f12;fill-opacity:1;fill-rule:evenodd;stroke:none"
         d="m 12853.5,5533.54 h 415.8 c 51.9,0 179.7,-98.25 202.2,-226.38 v 0 c 42.3,-206.11 23.5,-659.71 -122.6,-821.46 l -165.5,2.2 -507,125.67 v 438.49 417.37 c 48,39.96 109.9,64.11 177.1,64.11" /><path
         id="path288"
         style="fill:#f18f12;fill-opacity:1;fill-rule:evenodd;stroke:none"
         d="m 13269.3,5532.18 c 205.4,-20.16 224.5,-278.13 221.8,-439.2 h -221.6 l -0.2,439.2" /><path
         id="path290"
         style="fill:#f8c3d0;fill-opacity:1;fill-rule:evenodd;stroke:none"
         d="m 13289.5,5091.42 201.6,1.58 c -79.6,-217.78 -231.7,-402.95 -433.5,-402.95 h -293.5 c 0,0 62.4,79.99 144.6,86.67 82.2,6.71 85.5,-4.64 85.5,-4.64 68.8,36.24 227.8,158.74 295.3,319.34" /><path
         id="path292"
         style="fill:#5f2e15;fill-opacity:1;fill-rule:nonzero;stroke:none"
         d="m 13549.1,3441 20.1,-144.6 51.7,-47.8 c 0,0 40.2,1.9 44.9,-12.1 4.7,-14 0,-43.9 0,-43.9 h -40.9 -223.5 c -14.5,62.9 -26.1,129.2 -30.6,240.1 l 178.3,8.3" /><path
         id="path294"
         style="fill:#273372;fill-opacity:1;fill-rule:evenodd;stroke:none"
         d="m 12345.1,4690.05 h 878.5 c 10,0 19.7,-0.94 29.2,-2.73 v 0 c 245.3,1.28 275.7,-157.52 293,-330.52 l 98.9,-994.3 h -333 l -109.8,1012 h -856.8 c -86.8,0 -157.8,71 -157.8,157.8 0,86.75 71,157.75 157.8,157.75" /><path
         id="path296"
         style="fill:#5f2e15;fill-opacity:1;fill-rule:nonzero;stroke:none"
         d="m 12585,3781.2 120.6,-270.1 c 0,0 -7.9,-48.9 -28.1,-76.7 -20.3,-27.9 -22.2,-48.3 -9.5,-65 12.6,-16.8 16,-21 16,-21 l 205,213.9 -107.5,251.2 -196.5,-32.3" /><path
         id="path298"
         style="fill:#273372;fill-opacity:1;fill-rule:evenodd;stroke:none"
         d="m 12429.2,4644.04 c 32.9,-15.11 64,-42.86 87.2,-78.04 72.2,-109.6 400.4,-849.2 400.4,-849.2 h -377.3 l -274.8,602.6 c -11.4,25.1 -68.1,129.6 -73.3,177.2 -16.9,153.07 110.3,205.93 237.8,147.44" /><path
         id="path300"
         style="fill:#f8c3d0;fill-opacity:1;fill-rule:evenodd;stroke:none"
         d="m 12809.6,5741.31 c -43.5,-77.58 31.2,-185.77 123,-177.91 l -0.1,-24.62 -50.1,-71.4 49.4,-73.4 51.3,-18.67 124.1,31.92 v 223.51 c 4.5,1.41 4.7,-6.73 13.9,-1.11 9.3,5.61 29.7,47.19 26,68.61 -3.7,21.39 -31.2,33.67 -31.2,33.67 v 0 c 25.8,63.5 46.2,73.55 -20.3,108.84 -66.4,35.31 -200.6,32.66 -200.6,32.66 l -60.8,-20.41 c -2.7,-59.05 5.5,-57.91 -24.6,-111.69" /><path
         id="path302"
         style="fill:#dd5c70;fill-opacity:1;fill-rule:evenodd;stroke:none"
         d="m 12919.2,5563.07 c 4.4,-0.16 8.9,-0.05 13.4,0.33 39.9,0.71 74.2,8.72 111.3,22.9 0,0 -13.4,-43.18 -60.8,-65.11 -44.5,-20.52 -74.3,-21.24 -77.9,-21.26 l 27.3,38.85 0.1,24.62 -13.4,-0.33" /><path
         id="path304"
         style="fill:#31314f;fill-opacity:1;fill-rule:evenodd;stroke:none"
         d="m 12849.4,5833.66 c 51.3,-8.55 92.8,-1.17 124.2,-4.98 18.5,-2.26 33.3,-11.95 45.2,-21.54 29.4,-23.77 52.2,-82.5 58.8,-121.42 0,0 34.4,14.39 45.6,7.24 11.2,-7.13 4.2,-24.28 2.5,-31.39 -1.7,-7.15 -17.6,-14.76 -22.7,-19.19 -15.2,-13.18 20.8,-18.81 63.2,15.42 129.3,104.34 62.6,294.22 -97.2,348.6 -77.6,26.43 -68.5,57.71 -122,69.01 -194.1,37.84 -249.5,-193.76 -97.6,-241.75" /><path
         id="path306"
         style="fill:#f18f12;fill-opacity:1;fill-rule:evenodd;stroke:none"
         d="m 12680.8,5472.99 c -113,-100.72 -178.6,-239.85 -218.7,-385.78 74,4.83 151.4,4.5 224.7,6.87 l -6,378.91" /><path
         id="path308"
         style="fill:#ffffff;fill-opacity:1;fill-rule:evenodd;stroke:none"
         d="m 12932.5,5538.83 c -47.1,-80.49 4.3,-137.67 50.6,-163.52 65.4,42.41 124.1,83.75 124.1,163.52 0,0 22.5,0.42 37.2,-35.36 24.1,-57.95 -16.4,-188.06 -16.4,-188.06 0,0 -45.3,58.72 -83.1,61.89 -37.7,3.16 -62.2,-8.23 -62.2,-8.23 -48.3,35.41 -81.2,-10.49 -113.5,-44.13 -10.2,85.83 -8.8,147.51 55.4,213.89 z m 52.5,-209.67 c 7.5,0 13.6,-6.09 13.6,-13.59 0,-7.52 -6.1,-13.6 -13.6,-13.6 -7.5,0 -13.7,6.08 -13.7,13.6 0,7.5 6.2,13.59 13.7,13.59 z m 0,-78.89 c 7.5,0 13.6,-6.07 13.6,-13.6 0,-7.49 -6.1,-13.59 -13.6,-13.59 -7.5,0 -13.7,6.1 -13.7,13.59 0,7.53 6.2,13.6 13.7,13.6" /><path
         id="path310"
         style="fill:#5794d6;fill-opacity:1;fill-rule:evenodd;stroke:none"
         d="m 12884.2,5195.58 h -635.8 c -24.5,0 -49.9,-20.66 -44.5,-44.59 l 95,-420.19 c 5.4,-23.91 20,-44.58 44.5,-44.58 h 635.8 c 24.5,0 50,20.67 44.6,44.58 l -95,420.19 c -5.4,23.93 -20.1,44.59 -44.6,44.59" /><path
         id="path312"
         style="fill:#a9c7eb;fill-opacity:1;fill-rule:evenodd;stroke:none"
         d="m 12855.7,5195.58 h -635.8 c -24.5,0 -49.9,-20.66 -44.5,-44.59 l 95,-420.19 c 5.4,-23.91 20,-44.58 44.6,-44.58 h 635.7 c 24.5,0 50,20.67 44.6,44.58 l -95,420.19 c -5.4,23.93 -20.1,44.59 -44.6,44.59" /><path
         id="path314"
         style="fill:#ffffff;fill-opacity:1;fill-rule:evenodd;stroke:none"
         d="m 12571.9,4982.64 c -19.2,-6.18 -28.8,-29.87 -21.3,-52.93 7.3,-23.05 28.9,-36.75 48.2,-30.56 19.2,6.18 28.7,29.87 21.3,52.95 -7.4,23.03 -29,36.72 -48.2,30.54" /><path
         id="path316"
         style="fill:#5794d6;fill-opacity:1;fill-rule:evenodd;stroke:none"
         d="m 13325.4,4727.85 h -322.8 v -41.63 h 343.7 v 20.82 c 0,11.45 -9.4,20.81 -20.9,20.81" /><path
         id="path318"
         style="fill:#f08214;fill-opacity:1;fill-rule:nonzero;stroke:none"
         d="m 4557.96,10623.2 c -46.7,0 -89,-18.9 -119.62,-49.5 l 0.07,-0.1 c -30.66,-30.7 -49.62,-72.9 -49.62,-119.5 0,-46.7 18.94,-89 49.55,-119.7 30.62,-30.6 72.92,-49.5 119.62,-49.5 46.61,0 88.88,18.9 119.56,49.6 l 0.06,-0.1 c 30.61,30.7 49.55,73 49.55,119.7 0,46.5 -18.93,88.8 -49.55,119.4 l -0.06,0.1 -0.05,0.1 c -30.68,30.6 -72.94,49.5 -119.51,49.5 z m -76.79,-92.3 c 19.65,19.6 46.8,31.8 76.79,31.8 30.07,0 57.24,-12.1 76.8,-31.7 l 0.12,-0.1 c 19.56,-19.6 31.69,-46.8 31.69,-76.8 0,-30 -12.17,-57.2 -31.81,-76.8 v -0.2 c -19.56,-19.5 -46.73,-31.7 -76.8,-31.7 -29.99,0 -57.14,12.2 -76.79,31.9 -19.65,19.6 -31.81,46.8 -31.81,76.8 0,30 12.11,57.2 31.69,76.8 h 0.12" /><path
         id="path320"
         style="fill:#5996d7;fill-opacity:1;fill-rule:evenodd;stroke:none"
         d="m 6268.6,10570.4 h -0.01 c -14.98,0 -27.22,-12.2 -27.22,-27.2 v -238 c 0,-15 12.24,-27.3 27.22,-27.3 h 0.01 c 14.96,0 27.21,12.3 27.21,27.3 v 238 c 0,15 -12.25,27.2 -27.21,27.2" /><path
         id="path322"
         style="fill:#5996d7;fill-opacity:1;fill-rule:evenodd;stroke:none"
         d="m 6122.36,10424.2 v 0 c 0,-15 12.25,-27.3 27.22,-27.3 h 238.02 c 14.96,0 27.22,12.3 27.22,27.3 v 0 c 0,14.9 -12.26,27.2 -27.22,27.2 h -238.02 c -14.97,0 -27.22,-12.3 -27.22,-27.2" /><path
         id="path324"
         style="fill:#f08214;fill-opacity:1;fill-rule:nonzero;stroke:none"
         d="m 8753.96,10581.2 c -33.02,0 -62.92,-13.4 -84.58,-35.1 h 0.05 c -21.69,-21.7 -35.09,-51.6 -35.09,-84.5 0,-33 13.38,-63 35.04,-84.6 21.66,-21.7 51.56,-35 84.58,-35 32.94,0 62.84,13.4 84.53,35 h 0.04 c 21.65,21.6 35.04,51.6 35.04,84.6 0,32.9 -13.38,62.8 -35.04,84.5 h -0.04 -0.04 c -21.69,21.7 -51.57,35.1 -84.49,35.1 z m -54.3,-65.3 c 13.88,13.9 33.09,22.5 54.3,22.5 21.26,0 40.46,-8.6 54.3,-22.5 h 0.08 c 13.84,-13.9 22.41,-33.1 22.41,-54.3 0,-21.2 -8.6,-40.4 -22.49,-54.3 v -0.1 c -13.84,-13.9 -33.04,-22.4 -54.3,-22.4 -21.21,0 -40.42,8.6 -54.3,22.5 -13.9,13.9 -22.49,33.1 -22.49,54.3 0,21.2 8.56,40.4 22.41,54.3 h 0.08" /><path
         id="path326"
         style="fill:#5996d7;fill-opacity:1;fill-rule:evenodd;stroke:none"
         d="m 12007.8,11157.6 h -0.1 c -19.6,0 -35.7,-16.1 -35.7,-35.8 v -120.7 h -120.7 c -19.7,0 -35.8,-16 -35.8,-35.7 v 0 c 0,-19.7 16.1,-35.8 35.8,-35.8 h 120.7 v -120.7 c 0,-19.6 16.1,-35.8 35.7,-35.8 h 0.1 c 19.6,0 35.7,16.2 35.7,35.8 v 120.7 h 120.7 c 19.7,0 35.8,16.1 35.8,35.8 v 0 c 0,19.7 -16.1,35.7 -35.8,35.7 h -120.7 v 120.7 c 0,19.7 -16.1,35.8 -35.7,35.8" /><path
         id="path328"
         style="fill:#5996d7;fill-opacity:1;fill-rule:evenodd;stroke:none"
         d="m 9841.39,11254.8 v 0 c -17.18,0 -31.23,-14.1 -31.23,-31.3 v -273 c 0,-17.2 14.05,-31.3 31.23,-31.3 v 0 c 17.17,0 31.23,14.1 31.23,31.3 v 273 c 0,17.2 -14.06,31.3 -31.23,31.3" /><path
         id="path330"
         style="fill:#5996d7;fill-opacity:1;fill-rule:evenodd;stroke:none"
         d="m 9673.61,11087 v 0 c 0,-17.2 14.05,-31.2 31.24,-31.2 h 273.07 c 17.19,0 31.28,14 31.28,31.2 v 0 c 0,17.2 -14.09,31.2 -31.28,31.2 h -273.07 c -17.19,0 -31.24,-14 -31.24,-31.2" /><path
         id="path332"
         style="fill:#f08214;fill-opacity:1;fill-rule:nonzero;stroke:none"
         d="m 7669.84,11381.4 c -46.7,0 -89.01,-18.9 -119.62,-49.5 l 0.05,-0.1 c -30.64,-30.6 -49.61,-72.9 -49.61,-119.5 0,-46.7 18.95,-89 49.56,-119.6 30.61,-30.6 72.92,-49.6 119.62,-49.6 46.6,0 88.88,19 119.54,49.6 h 0.07 c 30.61,30.6 49.56,72.9 49.56,119.6 0,46.6 -18.94,88.8 -49.56,119.5 h -0.07 l -0.04,0.1 c -30.68,30.6 -72.92,49.5 -119.5,49.5 z m -76.81,-92.3 c 19.65,19.6 46.81,31.8 76.81,31.8 30.06,0 57.22,-12.1 76.79,-31.7 l 0.12,-0.1 c 19.57,-19.6 31.68,-46.7 31.68,-76.8 0,-30 -12.15,-57.2 -31.8,-76.8 v -0.1 c -19.57,-19.6 -46.73,-31.7 -76.79,-31.7 -30,0 -57.16,12.1 -76.81,31.8 -19.64,19.6 -31.8,46.8 -31.8,76.8 0,30.1 12.12,57.2 31.69,76.8 h 0.11" /><path
         id="path334"
         style="fill:#f08214;fill-opacity:1;fill-rule:nonzero;stroke:none"
         d="m 13744.3,10670.3 c -33,0 -63,-13.4 -84.6,-35 v -0.1 c -21.6,-21.6 -35,-51.5 -35,-84.5 0,-33 13.4,-62.9 35,-84.6 21.6,-21.6 51.6,-35 84.6,-35 32.9,0 62.8,13.4 84.5,35.1 l 0.1,-0.1 c 21.6,21.7 35,51.6 35,84.6 0,33 -13.4,62.8 -35,84.5 h -0.1 v 0.1 c -21.7,21.6 -51.6,35 -84.5,35 z m -54.3,-65.3 c 13.9,13.9 33.1,22.5 54.3,22.5 21.2,0 40.4,-8.6 54.3,-22.4 l 0.1,-0.1 c 13.8,-13.8 22.4,-33 22.4,-54.3 0,-21.2 -8.6,-40.4 -22.5,-54.3 v -0.1 c -13.9,-13.8 -33.1,-22.4 -54.3,-22.4 -21.2,0 -40.4,8.6 -54.3,22.5 -13.9,13.9 -22.5,33.1 -22.5,54.3 0,21.3 8.6,40.5 22.4,54.3 h 0.1" /></g></g></svg>