<?xml version="1.0" encoding="UTF-8" standalone="no"?>
<svg
   xmlns:dc="http://purl.org/dc/elements/1.1/"
   xmlns:cc="http://creativecommons.org/ns#"
   xmlns:rdf="http://www.w3.org/1999/02/22-rdf-syntax-ns#"
   xmlns:svg="http://www.w3.org/2000/svg"
   xmlns="http://www.w3.org/2000/svg"
   viewBox="0 0 158.75089 120.24988"
   xml:space="preserve"
   id="svg2"
   version="1.1"><metadata
     id="metadata8"><rdf:RDF><cc:Work
         rdf:about=""><dc:format>image/svg+xml</dc:format><dc:type
           rdf:resource="http://purl.org/dc/dcmitype/StillImage" /><dc:title></dc:title></cc:Work></rdf:RDF></metadata><defs
     id="defs6" /><g
     transform="matrix(1.3333333,0,0,-1.3333333,-255.29869,402.86187)"
     id="g10"><g
       transform="scale(0.1)"
       id="g12"><path
         id="path94"
         style="fill:#365462;fill-opacity:1;fill-rule:nonzero;stroke:none"
         d="m 2510.19,2119.59 c -49.28,0 -97.93,22.38 -129.76,64.83 l -433.28,577.79 c -53.69,71.59 -39.17,173.16 32.42,226.84 71.6,53.7 173.16,39.17 226.84,-32.42 l 433.29,-577.8 c 53.68,-71.59 39.16,-173.14 -32.43,-226.84 -29.14,-21.84 -63.26,-32.4 -97.08,-32.4" /><path
         id="path96"
         style="fill:#6fd1f2;fill-opacity:1;fill-rule:nonzero;stroke:none"
         d="m 2509.93,2119.59 c -33.82,0 -67.93,10.55 -97.08,32.4 -71.59,53.7 -86.11,155.25 -32.42,226.84 l 433.27,577.8 c 53.7,71.6 155.26,86.09 226.84,32.43 71.59,-53.69 86.11,-155.25 32.43,-226.85 L 2639.7,2184.42 c -31.84,-42.45 -80.5,-64.83 -129.77,-64.83" /></g></g></svg>