<?xml version="1.0" encoding="utf-8"?>
<!-- Generator: Adobe Illustrator 19.2.1, SVG Export Plug-In . SVG Version: 6.00 Build 0)  -->
<svg version="1.1" id="layer" xmlns="http://www.w3.org/2000/svg" xmlns:xlink="http://www.w3.org/1999/xlink" x="0px" y="0px"
	 viewBox="0 0 652 652" style="enable-background:new 0 0 652 652;" xml:space="preserve">
<style type="text/css">
	.st0{fill:#0072CE;}
	.st1{fill:#FFFFFF;}
</style>
<path class="st0" d="M34,427.1c0,1.9-2.5,1.9-2.7,3.4c-0.3,0.1-0.6,0.2-0.8,0.2c-5-1-7-3.4-7.7-8.3c0-0.8,0.6-2.1-1.5-1.7
	c-1,0.2-0.8-1.7-0.2-1.9c2.5-0.8,2.7-3.4,4.8-4.4c1.3-0.6,0.2-0.8-0.4-1.3c-4.4-2.5-4.6-5.2-0.6-8.5c1.5-1,1.7-2.5,0-3.2
	c-1-0.2-1.7-1.2-1.5-2.2c0.1-0.4,0.2-0.7,0.5-1c0.6-1,1.7-1.7,0-2.9c-0.4-0.2,0-1,1-1.3c3.4-0.8,3.4-2.7,1-5.2c-1-1-2.9-3.2-0.4-4.6
	c0.8-0.4,1.2-1.3,1-2.1c0-2.9-1.3-5.7-0.8-8.7c0.1-0.5-0.2-0.9-0.6-1c-3.2-1.9-1.7-3.4,0.4-4.8c-2.9-2.3-3.4-5.5-1.3-8.1l0.2-0.2
	c-1.5-3.6,1.7-6.8,1.7-10.4c-0.2-3.4-3.6-5.9-2.7-9.6c0.2-1-0.4-2.1,1.3-2.7c0.8-0.2,1-1,0.4-1.9c-0.8-1.7-0.4-2.9,2.1-3.6
	c-2.7-1.5-3.1-3.1-1.3-5c0.8-0.6,0.8-1.8,0.2-2.5l-0.2-0.2c-2.3-2.1-2.3-4-0.4-6.2c0.2-0.2,0.6-0.2,0.4-0.6
	c-1.7-4.8,0.6-9.8,0.8-14.8c0.2-4.2-3.8-7.2-2.7-11.2c0.2-0.6-0.4-0.8-1-1c-0.8,0-1.3-0.8-1-1c2.1-0.8,1.5-3.4,3.2-4.2
	c3.2-1.5,3.6-2.9,1-5.2c-1-1-2.3-1,0.2-2.1c2.7-1.3,2.7-6.2,0.6-8.3c-1.1-1-1.2-2.7-0.2-3.8c1.2-1.8,1.6-2.6-0.3-3.9
	c-0.2-0.3-0.5-0.5-0.8-0.6c2.9-2.3-2.5-5,0.6-8.1c2.3-2.1-0.8-6.4,1.7-9.1c1-1-0.6-1-1-1.7c-0.8-1.5-1.9-3.2,1.5-3.6
	c0.6,0,1.7,0.6,1.7-0.8c0-1,0.2-2.1-1-2.3c-2.1-0.2-1.5-1.5-1.5-2.3c0.2-1.5,1.7-1,2.5-1c3.4,0.2,6.6,0.2,7.2-3.8
	c0.2-1.3,1.5-0.8,2.3-0.8c11.9-0.4,23.7-0.8,35.6-0.6c4.2,0,8.5-1.3,12.9-0.2c1,0.2,2.9-2.3,5.2-1.7c1.3,0.2,2.9-0.6,3.8,1.5
	c0.6,1.3,4.4,1,5,0.2c1.5-1.9,2.9-1,4.4-1h11.2c0.6,0.2,1.2-0.1,1.5-0.6c1-1.3,2.7-1.5,3.6,0.2c0.4,0.9,1.4,1.3,2.2,0.9h0.1
	c5-2.5,10.6-0.6,15.9-1.3c2.3-0.2,4.8,0.6,7-1.3c1-0.4,2.2-0.4,3.2,0.2c1.3,1,2.7,2.3,4-0.2c0.4-0.8,1.9-0.2,2.5,0.6
	c1,1.5,2.1,1.7,3.4,0.2c0.6-0.8,1.7-0.4,2.3-0.4H175c0.8,0,1.9,0.8,2.1-0.6c0.4-0.7,1.2-1,1.9-0.6c4.2,2.7,8.1-1.3,12.3-0.2
	c4.4,1.3,9.3,0.8,14,0.6c2.1,0,4.4,0.6,6.2-1.3c0.5-0.3,1.2-0.3,1.7,0c3.2,2.7,5.9-0.8,9.3-0.2c3.6,0.8,7.5,0.6,11.2,0.8
	c1.3,0,2.9,0.6,3.4-1.5c0.2-1,6.6-0.4,7.7,0.6c1.8,1.5,4.5,1.5,6.4,0c0.6-0.8,1.5-0.4,2.3-0.4c3.4,0.2,6.6-0.2,10,0.4
	c1.7,0.4,4.2,1.3,6.2-1.3c0.8-1.3,4.2-0.6,6.4-0.2c1.5,0.3,3.1,0.5,4.6,0.4c9.6-0.4,19.1,1,28.8,0.6c1.3,0,2.9,0.6,3.4-1.5
	c0.2-0.8,1-0.6,1.7,0c1.9,1.9,2.9,1.9,4.6,0.2c0.3-0.3,0.7-0.4,1-0.2c2.9,0.6,6.4-1,8.5,2.1c0.3,0.3,0.7,0.4,1,0.2
	c3.6-3.4,8.1-1,12.3-1.5c2.7-0.2,6.8,0.8,8.7,0c2.5-1.3,3.6-0.8,5.2,0.4c0.6,0.1,1.2,0.1,1.7-0.2c1-1.9,1.9-2.9,2.7,0
	c0.4,0.2,0.8,0.2,1.3,0.2c2.5-3.8,6.8-1.9,9.8-1.7c10.2,0.8,20.4,0.8,30.6,1.5c3.4,0.2,6.8,0.4,10.2,0.4c1.5,0,3.4,0.8,4.2-1.5
	c0.9-0.8,2.2-0.7,3,0.2c0.1,0.1,0.2,0.3,0.3,0.5c0.6,1.5,2.3,1.5,3.6,0.6c2.5-1.9,3.4-1.9,5,0.8c1.7-1,3.4-4.2,5.7-0.2
	c0.8,0.9,2.2,1.1,3.2,0.4c2.7-1.7,5.5-2.5,8.1,0.4c0.5,0.4,1.2,0.4,1.7,0c3.6-2.3,9.1-2.5,12.3-0.2c1,0.6,1.5,0.2,2.3-0.2
	c1.5-0.8,3.8-1.7,4.2,1c0.2,1.5,1.5,1,2.3,1h26.1c2.1-1.9,4.4-0.6,6.8-0.8c0.8,0,2.9,0.8,2.9-1.5c0-0.6,2.1-0.6,2.7-0.2
	c2.4,1.4,5.4,1.1,7.7-0.6c0.3-0.4,0.9-0.5,1.3-0.1l0.1,0.1c1,1,2.6,1.1,3.6,0.1c0.2-0.2,0.4-0.5,0.6-0.8c0.2-0.4,3.4-0.8,3.6-0.4
	c0.4,1,1.9,1,1.9,1.3c2.7,4.6,3.4,0,3.8-0.8c1.3-2.9,4-1.9,5.7-1.3c1.7,0.6,3.4,0.8,4.4,0.2c4.8-3.2,10.6-2.5,15.9-2.7
	c11.2-0.8,22.3-2.1,33.5-2.7c0.6,0,1.2-0.1,1.7-0.4c0.8-4.4,5.2-1.7,7.9-2.7c1.5-0.6,3.2-1,4.6-1.7c4.4-1.5,9.6-1.3,14.4-1
	c1.3,0,0.4,1.5,0.8,2.1c0.4,0.8,1.7-0.8,1.9,0.4c0.4,1.5-1.7,0.8-1.9,1.5c-0.2,2.7-3.8,3.8-4.2,5.9c-0.4,2.1-0.8,4.8,1,6.6
	s2.3,4.5,1,6.8c-0.6,1.5-0.2,2.7-0.4,4c-0.4,2.7,1.7,5.5-0.4,8.3c-0.4,0.6-2.3,4,1.9,4c0.2,0.5,0.3,1,0.2,1.5
	c-0.7,2.3-1.2,4.7-1.5,7.2c-0.6,3.6-1.3,4,1.3,7.2c0.4,0.6,0.4,1.4,0.2,2.1c-1.7,1.5-0.6,4.2-2.5,5.5c0,0.1-0.1,0.2-0.2,0.2
	c-1.7,1.9,2.5,2.3,1.5,4c-1,1.5-1.3,2.9,0.8,4c0.4,0.2,0.7,0.6,0.6,1c-3.2,1.5,0.2,4.8-2.3,6.4c-0.2,0.2-0.2,0.5-0.2,0.8
	c3.6,0.6,1.3,3.4,2.3,5c0.4,0.6,0.3,1.4-0.3,1.9c-0.2,0.1-0.4,0.2-0.6,0.2c-0.7,0.3-1.1,1.1-0.8,1.9c0.8,3.1,1.1,6.5,0.6,9.8
	c-0.2,1,1,2.7,1.5,4.4c1.3,4.2,0.2,8.1-0.4,12.1c-0.2,2.6,0,5.1,0.8,7.7c0.2,1.5,1.3,2.7-1.3,3.4c-0.8,0.2-0.4,1.3-0.2,2.1
	c1,5.2,2.9,10.6,1.7,15.6c-0.8,3.6,1.5,7.9-2.1,11.2c-0.4,0.4-0.6,2.9,1,3.6c1.5,0.4,1.3,1.3,1.5,2.1c0.8,1.9,0,4.1-1.9,5
	c-1,0.6-1.9,1,0,1.5c0.7,0.1,1.1,0.6,1.1,1.3v0.2c0.2,2.1-2.1,4.2,0.6,6.2c0.2,0.2,0.4,1.7-0.6,1.7c-3.4,0.2-2.7,2.1-2.5,4
	c0.4,1.4,0,2.8-1,3.8c-0.8,1-0.8,3.2,0.8,4.8c1.8,1.8,2.2,4.5,1,6.8c-0.6,1-1,2.2-1,3.4c0,3.4-1.7,6.8-0.4,10.2
	c0.2,0.6-3.2,1.9-4,1.7c-2.3-1-5.2-0.2-5.7,1c-0.6,2.1-1.9,1.9-3.4,1.9c-3.8-0.1-7.7,0.1-11.4,0.6c-4,0.6-8.3-0.8-12.5-0.6
	c-2.5,0.2-5,0-7,1.9c-0.6,0.7-1.6,0.8-2.3,0.3c-0.2-0.1-0.3-0.3-0.4-0.5c-0.6-1-7.5-0.8-8.5,0c-2.9,2.3-3.6,2.1-8.3,0.6
	c-1-0.2-4.4-1-5.5,1.5c-0.3,1-1.2,1.5-2.2,1.3h-0.1c-2,0-3.9,0.2-5.9,0.6c-1.3,0.2-2.9,0.6-4.2-1.3c-1.3-1.9-4.4,0-6.6,0.4
	c-2.5,0.4-3.6,0.6-3.6-2.1c0-1.5-1.5-1.5-2.7-1.5h-38.1c-1,0-2.5-0.4-2.3,1.3c0.2,2.3-1.5,2.1-3.2,1.9c-16.7-0.8-33.5-0.6-50.2-1.9
	c-1.5,0-3.6-1-4.6,1.5c-0.4,0.8-3.4,1-4.6-0.2c-2.3-2.3-4.4-1.9-7-0.6c-0.4,0.3-0.8,0.4-1.3,0.2c-4.2-2.1-4.2-2.1-9.1,0.2
	c-1.5,0.6-3.8,1-5-0.6c-0.6-1.1-2.1-1.6-3.2-0.9l-0.1,0.1c-2.9,2.3-6.2,0.4-9.1,1c-2.1,0.4-1-1.9-2.5-2.1c-1.9-0.2-2.9,1.3-4.6,1.3
	c-6.6,0.2-13.3,0.2-20-0.2c-1.5,0-3.4,0.2-4.6-1.5c-0.8-1.3-1.7,1-2.9,1c-4.4,0-8.9,0.4-13.1-0.2c-5.4-0.7-10.9-0.8-16.3-0.2
	c-2.3,0.2-5,1-7.7,1c-1.5,0-2.9,0.4-3.8-1.3c-0.4-0.8-1.9-0.8-1.9-0.2c0.2,3.2-2.5,1.5-3.4,1.5c-4-0.5-8.2-0.6-12.3-0.4
	c-0.8,0-1.7-0.2-2.3,0.6c-0.8,1-1.5,1.3-1.9-0.2c-0.4-0.2-0.8-0.3-1.3-0.2c-4.2,2.5-8.7,0.4-13.1,1c-0.6,0.3-1.4-0.1-1.6-0.7
	c0-0.1,0-0.1-0.1-0.2c-0.2-1.5-2.1-1.3-2.5-1c-3.2,2.1-6.6,0.8-10,1.3c-1.3,0.2-2.9-0.4-3.6,1.3c-0.2,0.3-0.5,0.4-0.8,0.4
	c-5-2.9-10.2,1-15.2-0.2c-0.6-0.2-1.2,0.1-1.4,0.7c0,0.1-0.1,0.2-0.1,0.3c-0.4,1.5-1.3,0.8-1.9,0.2c-1.5-1.9-1.7-1.9-2.5-0.2
	c-0.6,1.5-1.3,0.8-2.5,0.8c-6.6-0.6-13.3-1-19.5,0c-4.3,0.9-8.9,1.2-13.3,0.8c-5.2-0.6-10.6-1-15.4-0.2c-4.2,0.7-8.6,1-12.9,1
	c-2.1,0-4.4,0.4-6.6-0.4c-0.8-0.3-1.6-0.2-2.3,0.2c-3.2,3.2-7.2,1-10.8,1.5c-2.1,0.2-4.2-1.3-6.2,0.6c-0.5,0.4-1.2,0.4-1.6-0.1
	l-0.1-0.1c-0.8-1.3-1.7-1.5-2.5,0c-0.4,0.3-0.8,0.4-1.3,0.2c-4-1.7-8.3,0.8-12.3,0c-3.8-0.8-7.2-2.3-11.4-1.7
	c-9.3,1.5-18.3,2.7-27.3,2.7c-5.2,3.6-11.7,2.1-17.3,2.9c-5.9,0.8-12.1,0.6-18.3,1c-1.7,0-5.9-2.3-7.2-3.6c-1.7-1.7-4.4-1.7-6.6-2.1
	C35.3,428.8,34.7,427.8,34,427.1"/>
<path class="st1" d="M278.6,370.4c-0.2-1.6,1-3,2.6-3.2h1.6c1.6-0.2,3,1,3.2,2.6v21.4h-7.5V370.4z M291.6,370.6c0-2.3,1-3.4,2.9-3.4
	h0.6c1.4-0.1,2.7,0.5,3.4,1.7l8.5,11v-12.7h7v20.6c0,2.3-1,3.4-2.9,3.4h-0.6c-1.3,0.2-2.6-0.5-3.1-1.7l-8.7-11.2v12.7h-7
	C291.7,390.9,291.6,370.6,291.6,370.6z M317.8,370.6c0-2.1,1.3-3.2,3.4-3.2h15.2c2.3,0,3.4,1,3.4,2.9v0.2c0,2.1-1,3.2-3.4,3.2h-3.8
	v17.4h-7.4v-17.3h-4C319.1,373.7,317.8,372.7,317.8,370.6 M343.8,387.5v-16.1c0-2.5,1.3-4,3.8-4h15.9v6.4h-12.3v2.3h9.1v5.9h-9.1
	v2.7h12.3v6.4h-16.1c-1.8,0.2-3.4-1-3.6-2.8L343.8,387.5 M380.3,388.3l-3.4-4.4h-1.3v7.5h-7.5v-19.7c0-2.5,1.3-4,3.8-4h7.5
	c6.6,0,10,2.7,10,7.9c0.2,3.2-1.9,6.2-5,7l5.2,6.6c0.2,0.2-1,2.5-4.2,2.5C383.2,391.4,381.3,390.2,380.3,388.3 M375.4,378.6h3.2
	c2.1,0,3.4-1,3.4-2.7c0-1.9-1-2.7-3.4-2.7h-2.9v5.5L375.4,378.6L375.4,378.6z M394,370.6c0-2.3,1-3.4,2.9-3.4h0.6
	c1.4-0.1,2.7,0.5,3.4,1.7l8.5,11v-12.7h7v20.6c0,2.3-1,3.4-2.9,3.4h-0.6c-1.3,0.2-2.6-0.5-3.2-1.7l-8.7-11.2v12.7h-7L394,370.6
	L394,370.6z M436.5,386.2h-7.7l-1.9,4.8h-7.5l8.5-22c0.4-1.3,1.3-2.1,4.6-2.1c3.4,0,4.2,0.8,4.6,2.1l8.9,22h-7.7L436.5,386.2z
	 M430.1,381h5l-2.5-7L430.1,381z M447.7,370.6c0-2.1,1.3-3.2,3.4-3.2h15.2c2.3,0,3.4,1,3.4,2.9v0.2c0,2.1-1,3.2-3.4,3.2h-3.8v17.4
	H455v-17.3h-4C448.8,373.7,447.7,372.7,447.7,370.6 M473.7,370.4c-0.2-1.6,1-3,2.6-3.2h1.6c1.6-0.2,3,1,3.2,2.6v21.4h-7.5
	L473.7,370.4L473.7,370.4z M485.8,379.2c-0.2-6.7,5-12.3,11.7-12.5h0.7c7.5,0,12.5,5,12.5,12.5c0,6.9-5.6,12.5-12.5,12.5
	C491.4,391.8,485.8,386.1,485.8,379.2 M503.6,379.2c0-3.4-2.1-5.9-5.2-5.9s-5.2,2.3-5.2,5.9c0,3.6,2.1,5.9,5.2,5.9
	S503.6,382.9,503.6,379.2 M515.4,370.6c0-2.3,1-3.4,2.9-3.4h0.6c1.4-0.1,2.7,0.5,3.4,1.7l8.5,11v-12.7h7v20.6c0,2.3-1,3.4-2.9,3.4
	h-0.6c-1.3,0.2-2.6-0.5-3.2-1.7l-8.7-11.2v12.7h-7L515.4,370.6L515.4,370.6z M557.9,386.2h-7.7l-1.9,4.8h-7.5l8.5-22
	c0.4-1.3,1.3-2.1,4.6-2.1c3.3,0,4.2,0.8,4.6,2.1l9,22h-7.7L557.9,386.2L557.9,386.2z M551.3,381h5l-2.5-7L551.3,381L551.3,381z
	 M570.3,370.6c0-2.3,1-3.4,3.2-3.4h1c2.1,0,3.2,1,3.2,3.4v14.2h7.2c2.3,0,3.4,1,3.4,2.9v0.3c0,2.1-1,3.2-3.4,3.2h-14.6V370.6z
	 M276.7,275.9c0-9.1,4.4-14,12.9-14h21.6c23.3,0,36,10.2,36,29.6c0,19.5-12.2,29-35.3,29h-9.8v22.9h-25.4
	C276.7,343.5,276.7,275.9,276.7,275.9z M301.7,302.1h9.3c7.7,0,11.7-3.8,11.7-10.6c0-6.8-4.2-10.6-12.1-10.6h-8.9L301.7,302.1
	L301.7,302.1z M354.2,273.2c0-8.1,3.6-11.7,10.6-11.7h3.6c7.2,0,11,3.8,11,11.7v48.5h24.8c7.9,0,11.7,3.6,11.7,10.4v0.4
	c0,7.2-3.8,11-11.7,11H354v-70.3H354.2L354.2,273.2z M474.2,326.7h-26.5l-6.4,16.9h-25.2l29.2-75.4c1.3-4,4.6-7,16.1-7
	s14.4,2.9,15.7,7l30.5,75.4h-26.7L474.2,326.7L474.2,326.7z M452.1,308.5h17.5l-8.9-23.7L452.1,308.5z M510.6,273.2
	c0-7.9,3.8-11.7,10.4-11.7h2.3c5.9,0,7.9,1.7,11.4,5.9l29.2,38.1v-43.7h23.7v70.6c0,7.9-3.8,11.7-10.2,11.7h-2.1
	c-6.2,0-7.9-1.5-11.2-5.5l-29.8-38.7v43.7h-23.7L510.6,273.2L510.6,273.2z M75.9,270.6c-1.7,1-9.6,9.3-10.4,10.6
	c-0.4,0.6-1.9,3.2-2.1,3.4c-0.2,0.2-1.3,1.7-1.5,1.9s-1,2.7-1.3,2.9c-0.4,0.6-1.7,1.7-1.9,2.1c0.3,1.3-0.2,2.6-1.3,3.4
	c-1.3,1-2.1,5.2-2.3,5.5c-0.2,0.8-1.9,2.7-1.7,4.4c0,0.8-0.3,1.6-0.8,2.1c-0.2,0.6-0.2,2.7-1.5,3.2c-1,0.4-0.6,2.1-0.4,2.7
	c0.5,1,0.6,2.1,0.2,3.2c-0.2,0.7-0.1,1.5,0.2,2.2c0.8,1.3,0,3.4-0.2,4c-0.2,3.8,2.3,4.8,1.7,7.2c-0.4,1.5,0.4,2.5,0.2,4
	c0,0.8,0.3,1.6,0.8,2.1c0.4,0.8,0.7,1.6,0.8,2.5c-0.4,2.1,2.7,5,2.5,8.1c-0.2,2.5,2.9,3.8,3.2,4c1.5,1.9,1.5,4,3.2,5
	c0.7,0.6,1.4,1.1,2.1,1.5c1,0.6,0,1.3,0.2,1.5c1,1.8,2.3,3.4,4,4.6c6.6,7.7,22.3,17.3,24,17.5c1.5,0,2.9,0.6,4,1.5
	c2.2,1.3,4.5,2.3,7,3.2c0.8,0.4,1.7,0.2,2.5,0.6c0.8,0.2,5.7,2.1,6.4,2.3c1.8,0.8,3.7,1.5,5.7,1.9c1.5,0.4,3.2,1.3,4.8,1.7
	c1.9,0.4,3.4-1.3,4.8-0.2c1.6,0.9,3.3,1.5,5,1.9c7.9,1.7,19.1,2.1,26.9,1.7c1.7,0.4,3.5,0.4,5.2,0c2.7-0.2,5.9-1,8.7-1.3
	c4-1,8.7-2.1,12.5-4c1.3-0.2,2.7-1.7,3.6-1.9c1.7-0.8,3.3-1.8,4.6-3.2c0.2-0.2,2.7-1.7,2.7-1.7c0.6-0.3,1.1-0.7,1.7-1
	c0.6-0.4,7-5.5,7-5.5c0.4-1,1.7-1.5,2.7-2.1c0.1-0.2,0.2-0.3,0.4-0.4c0.4-0.4,0.8-0.6,1.3-0.8c0.2-0.2,0.4-0.2,0.6-0.4l0.2-0.2
	c0-0.2,0.1-0.3,0.2-0.4c0-0.1,0.1-0.2,0.2-0.2c0.2,0,0.2,0.2,0.2,0l0.2-0.2c0-0.1,0.1-0.2,0.2-0.2c0.2-0.2,0.2-0.4,0-0.4
	c-0.2-0.1-0.3-0.2-0.4-0.4c0.1-0.3,0.2-0.5,0.4-0.6s0.4-0.1,0.6,0c0.1,0.2,0.2,0.3,0.4,0.4c0.2,0,0.4-0.2,0.4-0.4s0.1-0.3,0.2-0.4
	c0.2-0.2-0.2-0.2-0.4-0.2s0-0.2,0.2-0.2c0-0.2-0.2-0.4-0.4-0.4s-0.4,0.2-0.6,0.2l-0.2,0.2h-0.2v0.2c0,0.2-0.2,0-0.2,0h-0.8
	c-0.1,0-0.2,0.1-0.2,0.2c-0.2,0-0.2,0.2-0.4,0.2c-0.4,0-0.9,0.2-1.3,0.4c-0.2,0.2-0.5,0.4-0.8,0.4h-0.6l0.1,0.1l-0.2,0.2
	c0,0.3-0.3,0.6-0.6,0.6c-0.5,0.2-1.1,0-1.5-0.4c-1,0-1-0.6-1.3-1.3c0-0.2-0.1-0.4-0.3-0.4h-0.2c-0.2,0.1-0.3,0.2-0.4,0.4
	c-0.4,0.6-1.1,1.1-1.9,1.3c-0.4,0.1-0.7,0.1-1,0.2c-0.3-0.1-0.6-0.1-0.8,0c-0.2,0-0.2,0.2-0.2,0.4s-0.2,0.2-0.2,0.4
	c-0.2,0.2-0.4,0.4-0.6,0.2c-0.2,0-0.6-0.2-0.2-0.6c0.2-0.2,0.6-0.2,0.4-0.6c0-0.2-0.2,0-0.4,0c-0.2,0.2-0.4,0.2-0.6,0.2
	c-0.4,0.1-0.8-0.2-0.8-0.6v-0.2l0.2-0.2l0.2-0.2V370c0.1-0.2,0.2-0.3,0.4-0.4c0.2-0.3,0.4-0.5,0.6-0.6c0.3,0.1,0.6,0,0.8-0.2
	c0.2-0.4,0-0.6,0.2-1s0.6-0.4,0.2-0.8c-0.4-0.4-0.8,0-1.3,0.2c-0.2,0.2-0.4,0.4-0.6,0.4c-0.4,0-0.2-0.2,0-0.4l0.6-0.6
	c0.1-0.4,0.5-0.6,0.8-0.6c0.2,0,0.5-0.1,0.6-0.2c0.2-0.4,0-0.6-0.4-0.6s-0.9,0.2-1.3,0.4c-0.3,0.2-0.6,0.4-0.8,0.6
	c-0.2,0.3-0.6,0.4-0.8,0.2h-0.2c-0.3,0.1-0.5,0.2-0.6,0.4c-0.4,0.2-0.8,0.4-1-0.2c0.1-0.2,0.2-0.3,0.4-0.4c0,0,1-0.2,1.3-0.2
	c0.4,0,0.7-0.2,1-0.4c0-0.1,0.1-0.2,0.2-0.2c0.4-0.4-0.2-1.3-0.6-0.8c-0.4,0.3-0.8,0.6-1,1c-0.2,0.2-0.5,0.4-0.8,0.4
	c-0.2,0-0.8-0.2-0.6-0.6c0.2-0.2,0.4-0.3,0.6-0.4l0.6-0.6l1.3-0.6c0.2,0,0.8,0,0.8-0.4c0-0.2-0.2-0.2-0.4-0.2h-0.7
	c-0.4,0-0.7,0-1-0.2c-0.2-0.2,0-0.6-0.4-0.6c-0.6,0-0.2,0.2-0.4,0.6c-0.4,0.3-0.8,0.4-1.3,0.2c-0.2-0.4,0.4-0.8,0.6-0.8
	c0.3-0.2,0.7-0.3,1-0.2h0.4c0.2,0,0.2-0.4,0.4-0.4s0.2-0.4,0-0.4h-0.8c-0.3,0.2-0.5,0.4-0.6,0.6c-0.2,0.2-0.5,0.4-0.8,0.4
	c-0.4,0-0.4-0.4-0.8-0.4c-0.4-0.2-0.4,0.4-0.4,0.6c-0.1,0.3-0.5,0.5-0.8,0.4l-0.6,0.6c-0.6,0.4-1.4,0.6-2.1,0.6
	c-0.3,0-0.5,0.2-0.6,0.4c-0.6,0.4-1.3-0.2-1.9,0l-0.4,0.2c-0.2,0-0.2-0.2-0.4-0.2c-0.5,0-1-0.1-1.5-0.2c-0.3,0.1-0.5,0.2-0.6,0.4
	c-0.3,0.4-0.8,0.6-1.3,0.6c-0.3-0.1-0.5-0.2-0.6-0.4c-0.1-0.2-0.4-0.2-0.5-0.1l-0.1,0.1c-0.1,0.2-0.2,0.5-0.4,0.6
	c-0.2,0-0.4,0-0.4-0.2s0.2-0.2,0.2-0.4s0-0.2-0.2-0.2l-0.4,0.2h-1c-0.2,0-0.3-0.1-0.4-0.2c-0.2,0-0.2-0.2-0.4-0.2
	c-0.2,0.1-0.3,0.2-0.4,0.4h-0.6c-0.2-0.1-0.4-0.1-0.6,0l-0.4,0.4h-1c-0.8,0-1.7,0.1-2.5,0.2c-1.3,0.2-2.3,0.6-3.6,0.8
	c-1.3,0.2-6.6,0.4-7.5,0.4c-0.9,0-4.2-0.2-4.4,0.2h-1c-0.2-0.2-0.4-0.3-0.6-0.4c-0.6-0.2-0.2,0.4-1-0.2c-0.7-0.3-1.5-0.4-2.3-0.2
	c-1.5,0-4.2-0.4-4.6-0.4c-0.9-0.2-1.8-0.6-2.5-1.3c-0.4-0.6-1.3-0.6-1.3-1.5c-0.1-1.8,0.1-3.7,0.6-5.5c0.2-0.8,0.4-3.8,0.6-4
	s0-0.2,0.2-0.4c1-1,0.6-1,0.8-2.1c0.4-1.7,1-4.4,2.9-4.8c0.9-0.3,1.9-0.6,2.7-1c1.2,0,2.4-0.3,3.6-0.6c0.3-0.2,0.5-0.3,0.8-0.4
	c1.3-0.2,2.3,0.2,3.6,0c0.9-0.1,1.8-0.2,2.7-0.2c0.4,0,0-0.4,0.2-0.4c0.6-0.2,0.6,0.4,1.3,0.6c1,0.2,2,0.2,2.9,0.2
	c0.2,0,0-0.2,0.2-0.4c0.4-0.4,0.6,0.4,0.8,0.4c0.4,0.4,9.3,1.5,10,1.5c1.2,0.3,2.5,0.1,3.6-0.4c1-0.4,1.9-0.9,2.7-1.5
	c0.1-0.2,0.1-0.4,0-0.6c0.5-0.5,0.7-1.2,0.6-1.9c0-0.3,0-0.6,0.2-0.8c0.1-0.3,0.1-0.7,0-1c-0.1-0.4,0.1-0.8,0.4-1
	c0.4-0.4,0.5-1,0.2-1.5c-0.3-0.4-0.6-0.8-1-1s0,0,0-0.4c-0.2-0.2-0.4-0.2-0.6-0.2c-0.6,0-1.1-0.1-1.7-0.2c-1.1-0.4-2.4-0.6-3.6-0.6
	c-1.9,0-3.8-0.8-5.9-0.6c-0.4,0-1,0.2-1.3,0.2c-0.4,0,0-0.6-1.3-0.6c-1.1,0-2.1-0.2-3.2-0.4c-0.8-0.2-3.8,0-4-0.2
	c-0.2,0-0.5-0.1-0.6-0.2c-0.4-0.4-0.9-0.7-1.5-0.8c-0.2,0-0.3-0.1-0.4-0.2c-0.3,0.1-0.7,0.1-1,0c-0.4-0.2-1.3-0.4-1.3-1
	c-0.2-1,1.7-2.3,2.5-2.7c0.6-0.4,1.3-1.3,2.1-1c0.4-0.1,0.7-0.3,1-0.6c1.3-1.8,2.7-3.5,4.2-5c0.8-0.6,0.2-1.7,1.5-2.5
	c0.4-0.5,0.8-1.1,1-1.7c0.6-1,0.4-2.7,1.5-3.6l0.3-0.9c0.1-0.3,0-0.6-0.2-0.8c-0.1-0.3-0.1-0.7,0-1v-3.2c-0.1-0.5,0.2-1,0.7-1h0.3
	c0.4,0,0-1,0-1.5c-0.3-1.2-1.3-2.2-2.5-2.3c-1.7-0.2-2.9,1-4,2.3c-0.6,0.8-2.7,3.6-2.9,3.8c-0.6,0.4,0,0.6-0.6,1.5
	c-0.2,0.2-0.6,0.2-0.8,0.4c-0.3,0.4-0.5,0.9-0.6,1.4c0.1,0.3,0,0.6-0.2,0.8c-0.8,0.6-0.8-0.2-1.3,0c-1.5,1-1.5,1.5-1.7,1.5
	c-0.5,0.6-1.1,1-1.8,1.2c-0.7,0-1.4,0.3-1.9,0.8c-0.2,0.4-1.3,0.4-1.3-0.2c0.1-0.9,0.3-1.7,0.6-2.5c0.2-0.8-1.3-1.5-0.4-2.3
	c0.4-0.4,0.4-1,0-1.4c-0.2-0.5-0.4-1-0.4-1.5c-0.4-0.6,0.2-0.6-0.4-1.5c-0.2-0.4-0.6,0.2-0.8-0.8c-0.2-0.6-0.6-1-1.1-1.2
	c-0.4-0.4-1-0.8-1.5-1.3c-1.4-1-3-1.7-4.6-2.1c-1.7-0.4-3.4-0.5-5-0.2c-0.4,0-1,0-1-0.4c0-0.1-0.1-0.2-0.2-0.2
	c-0.5-0.1-1-0.1-1.5,0.2c-1,0.4,0,0.8-0.6,1c-0.8,0.2-2.7,0.8-3.4,1c-0.4,0.1-0.8,0.2-1.3,0.2c-0.6,0-0.6,0.4-1.3,0.8
	c-1.3,0.6-1,3.8-1,4.6c0,0.2,0.1,0.4,0.3,0.4h0.2c0.2,0,0.6,0.2,0.6,1c0,0.6-0.1,1.3-0.2,1.9c-0.2,0.8,0.2,0.4,0.2,1
	c0,0.6,0.8,2.7,0.6,3.2c0,0.2,0.2,0.4,0.2,0.6c0,0.1,0.1,0.2,0.2,0.2c0.4,0,0.4,0.8,0.6,1.5c0.2,0.6,0.4,1.1,0.8,1.5
	c0.2,0.2,0.2,0.4,0.4,0.6c0.2,0.2,0.4,0.4,0.2,0.6c-0.2,0.2-0.8,0.8-1,0.6c-0.4-0.2-1.5-0.2-1.9-0.4c-0.8-0.2-1.7,0.2-1.9,0
	c-0.3-0.2-0.7-0.3-1-0.4c-0.4-0.2-0.4,0.2-0.6,0.2c-0.3-0.2-0.5-0.4-0.6-0.6c-0.6-0.5-1.3-0.8-2.1-0.8c-1-0.3-1.9-0.7-2.7-1.3
	c-0.8-0.6-4-1.7-4-2.1c-0.2-0.4-1-0.2-1.3-0.4c0-0.4-1-0.4-1-0.6c0-0.4-0.6-0.2-0.8-0.4c-0.3-0.3-0.7-0.4-1-0.2
	c-0.2,0.2-0.6,0.2-0.8,0c-0.2-0.2-0.4-0.3-0.6-0.4c-0.5-0.2-1.1,0-1.5,0.4c-0.6,0.4-1.1,0.9-1.5,1.5c-0.2,0.4-0.4,0.6-0.6,1
	c-0.2,0.3-0.4,0.6-0.6,0.8c-0.2,0.3-0.2,0.7,0.1,0.9c0.1,0.1,0.2,0.1,0.3,0.1c0.4,0.2,0,0.6,0.4,0.8c0.6,0.2,0.8,1.5,1.5,2.1
	c0.7,0.8,1.2,1.7,1.5,2.7c0.4,0.8,1.7,0.2,2.1,1c0.6,0.9,1.4,1.7,2.3,2.3c1.1,0.8,2.3,1.3,3.6,1.7c1.6,0.1,3,0.8,4.2,1.9
	c1,0.2,1.9,0.9,2.3,1.9c0.4,1.4,0.7,2.9,0.8,4.4c0.4,2.7,1.5,2.3,1,3.2c-0.6,1.3,0.4,2.5,0.4,5.7c-0.1,1-0.4,1.9-0.8,2.7
	c-0.6,1.7,0.4,4,0.2,4.6c-0.4,1-0.6,4.8-1.5,5.7c-0.4,0.3-1,0.3-1.5,0c-0.8-0.4-3.4,0.2-4-0.2c-1-1-2.5-0.8-3.2-1
	c-0.7-0.2-1.5-0.4-2.1-0.8c-1-0.6-5.7-2.1-7.5-3.2c-4.2-2.1-10-4.6-10.4-7c-0.2-0.8-6.6-5-7.5-6.4c-0.6-0.8-1.7-1.9-1.9-2.3
	c-0.2-0.4-0.4-1.7-0.6-2.1c-0.8-1-1.9-1.3-2.3-3.4c-0.2-0.8-0.6-0.4-1.7-2.5c-2.3-5.7-1.9-12.5-1.9-14.8c0-2.1,1.9-6.8,2.5-8.5
	c0.4-1,1.5-1.7,1.9-3.4c0-0.6,2.7-2.3,3.8-4c1.1-1.5,2.5-2.7,4-3.8c0.8-0.4,10.6-7.9,11.4-8.7c0.7-1.1,2-1.9,3.4-1.9
	c0.7-0.1,1.3-0.5,1.7-1c0.2-1,10.4-3.6,11.9-5.2c0.4-0.6,3.6-1.5,5-1.7c0.4,0,0.4,0.4,1.3-0.4c0.8-0.6,2.3,0.4,3.4-0.4
	c1.3-1.3,1.5-1.5,3.8-1.5s2.1-1.3,3.8-1.3c1.3,0,2.5-0.6,3.2-1.7c0.4-0.8,4.8-1,5.7-1.7c2.1-1.7,3.6,0.2,6.4-0.4
	c0.4,0,1.5,0.2,2.1,0.2s1.7-0.8,1.9-0.2c0.2,0.4,4.2,0.2,5.2,0.2c0.3-0.1,0.5-0.2,0.8-0.2c-0.2,0.4,2.5,0.2,2.9,0.6
	c0.9,0.8,2,1.1,3.2,0.8c1.6-0.1,3.3,0.1,4.8,0.6c0.8,0.2-0.6,0.6,2.3,0.8c1.9,0,8.1,3.8,9.3,4c1.5,0,1.9,1.7,3.6,2.3
	c2.9,1,6.4,3.6,13.5,9.1c0.4,0.2,0.6,1.5,1,1.5c1.9,0,3.6,3.4,4.4,4.4c0.2,0.2,1.5-0.4,1.3,1.7c0,0.4,0.8-0.2,1,1.3
	c0,1.7,2.9,2.5,3.8,6.2c0.1,0.4,0.3,0.7,0.6,1c1.2,3,2.1,6.3,2.5,9.6c0.2,2.5,0.2,5.1-0.2,7.7c-0.7,2.6-1.5,5.1-2.5,7.7
	c-0.6,1.5-2.1,3.6-2.1,4.2c0,0.4-0.4,1-0.4,1.7c0.1,0.4,0,0.7-0.2,1c-0.5,0.2-1,0.5-1.3,1c0,0.4-0.8,0.4-0.8,0.8c0,0.6-1,0.4-1,1
	c0,0.4-0.8,0.6-0.6,1.3c-0.2,0.2-0.4,0.3-0.6,0.4c-0.5,0.4-1,1-1.3,1.7c-0.3,0.2-0.5,0.5-0.6,0.8c-0.2,0.4-0.5,0.8-0.8,1
	c-0.2,0.4-0.6,0.4-0.6,0.6c-0.2,0.3-0.3,0.7-0.2,1c0,0.4-0.6,1.5,0.2,1.5c0.3-0.2,0.5-0.4,0.6-0.6c0.3-0.3,0.6-0.6,1-0.6
	c0.5-0.2,1-0.5,1.5-0.8c0.2-0.4,0.5-0.7,0.8-0.8h0.5c0.1,0,0.2-0.1,0.2-0.2c0.2-0.2,0.4-0.6,0.6-0.8c0.2-0.2,0.4,0,0.6-0.2
	c0-0.2,0.1-0.3,0.2-0.4c0.2,0,0.4,0,0.4-0.2c0.2-0.1,0.3-0.2,0.4-0.4c0.2-0.3,0.5-0.4,0.8-0.2c0.4,0.2-1,1.5-1,1.7
	c-0.4,0.4-0.4,0.8-0.8,1.3l-0.8,0.8c-0.2,0-0.2,0.2-0.4,0.2c0,0.2-0.2,0.2-0.2,0.4l-0.6,0.6c-0.2,0.2-0.2,0.4-0.4,0.6
	c-0.3,0.3-0.4,0.7-0.2,1c0,0.2,0.2,0.4,0.4,0.2s0.4-0.4,0.4-0.6c0.2-0.2,0.2-0.4,0.4-0.6s0.4-0.2,0.6-0.4c0.2-0.1,0.3-0.2,0.4-0.4
	c0.3-0.5,0.6-0.9,1-1.3l0.6-0.6c0.2,0,0.4,0,0.4-0.2s0-0.4,0.2-0.4s0.2,0.2,0.2,0.4s0,0.2,0.2,0.2s0.4-0.2,0.4-0.4
	c0.1-0.3,0.2-0.5,0.4-0.6c0.2-0.2,0.4-0.2,0.6-0.4l0.8-0.8l0.6-0.6c0.2-0.3,0.4-0.5,0.6-0.6h0.4c0.2,0,0.2,0,0.2-0.2l0.2-0.2
	c0.2,0,0.2,0.4,0.2,0.6v0.4h0.4c0.2,0,0.4,0,0.2,0.2c0,0.2-0.2,0.2-0.2,0.4l-0.8,0.8l-0.4,0.4c-0.4,0.4-0.6,0.8-1,1.3
	c-0.2,0.4-0.6,0.6-0.8,1c-0.3,0.4-0.6,0.8-0.8,1.3c-0.2,0.4-0.5,0.7-0.8,0.8c-0.2,0.2-0.2,0.4-0.2,0.6c0,0.2-0.2,0.4-0.4,0.4
	c-0.4,0.4-0.6,0.8-0.8,1.3c0,0.2,0,0.6,0.2,0.4c0.1-0.2,0.2-0.3,0.4-0.4c0.2-0.2,0.4-0.2,0.6-0.2c0.3,0,0.6-0.3,0.6-0.6
	c0-0.2,0-0.6,0.2-0.6c0.2-0.2,0.4,0,0.6-0.2c0.2,0,0.4-0.2,0.6-0.2c0.2,0,0.5-0.1,0.6-0.2V349c0-0.2-0.2-0.2,0-0.2l0.2-0.2
	c0-0.2-0.1-0.3-0.2-0.4c-0.2-0.1-0.3-0.2-0.4-0.4c0-0.2,0.1-0.3,0.2-0.4s0.2-0.3,0.2-0.4v-0.2c0-0.1,0.1-0.2,0.2-0.2l0.2-0.2
	c0.2,0,0.4,0.2,0.6,0.2h1.3c0.2,0,0.4,0,0.4-0.2v-0.2c0-0.2-0.2-0.2-0.2-0.4s0-0.4,0.2-0.4c0.1-0.2,0.2-0.2,0.4-0.2
	c0.4,0,0.8,0.6,1.3,0.4c0.2,0,0.2-0.2,0.2-0.4l-0.2-0.2c0-0.1-0.1-0.2-0.2-0.2c-0.1-0.3,0-0.6,0.2-0.8l0.6-0.6
	c0.2,0,0.2-0.2,0.4-0.2s0.2,0.2,0.2,0.4s0,0.4-0.2,0.4c-0.3,0.2-0.4,0.6-0.2,0.8c0.2,0.2,0.5,0.3,0.8,0.2h0.8c0.2,0,0.2,0.4,0.2,0.4
	c-0.1,0.3-0.2,0.5-0.4,0.6l-0.6,0.6c-0.2,0-0.3,0.1-0.4,0.2c-0.3,0.1-0.5,0.2-0.6,0.4c0,0.2,0,0.4,0.2,0.4c0.3,0,0.5,0.2,0.6,0.4
	c0,0.5-0.4,0.9-0.8,1c-0.3,0.1-0.5,0.2-0.6,0.4l-0.2,0.2L222,350c-0.2,0-0.3-0.1-0.4-0.2h-0.2l-0.2,0.2c-0.1,0-0.2,0.1-0.2,0.2v0.8
	c-0.1,0.1-0.2,0.3-0.2,0.4c0,0.2,0.4,0,0.4,0c0.2,0,0.2-0.2,0.2-0.4c0.2-0.2,0.4,0.2,0.4,0.4s-0.2,0.2-0.2,0.4s0.1,0.3,0.2,0.4
	c0.3,0,0.6-0.2,0.8-0.4c-0.1-0.2-0.1-0.4,0-0.6c0.2,0,0.3,0.1,0.4,0.2c0.1,0.1,0.3,0.2,0.4,0.2c0.2-0.1,0.3-0.2,0.4-0.4
	c0.2-0.2,0.4-0.4,0.6-0.4c0.4-0.1,0.8-0.3,1-0.6l0.6-1.3c0-0.2,0.2-0.4,0.2-0.6c0.4-0.4,0.8-0.2,1.3-0.6c0.2-0.1,0.2-0.2,0.2-0.4
	s0.2-0.2,0.2-0.4c0.1-0.1,0.1-0.3,0-0.4c0-0.2,0.1-0.3,0.2-0.4c0.2-0.2,0.4-0.2,0.4,0c0.3,0.1,0.6,0.1,0.8,0c0.1,0.3,0,0.6-0.2,0.8
	c-0.6,0.4-0.4,1.3-1,1.9c-0.2,0.2-0.6,0.2-0.8,0.4s-0.2,0.8-0.4,1s-0.4-0.2-0.4,0c-0.1,0.1-0.2,0.3-0.2,0.4v0.2
	c0,0.2-0.4,0.4-0.2,0.6h0.4c0.2,0,0.3-0.1,0.4-0.2l0.2-0.2l0.2,0.2c0,0,0.2,0.2,0.2,0V351l0.2-0.2l0.2,0.2c0,0.2,0.4,0,0.4,0
	l0.2-0.2c0.2-0.2,0.4-0.4,0.4-0.6l0.6-0.6c0.2,0,0.4,0,0.4-0.2c0.2,0,0.4-0.2,0.4-0.4c0.3-0.1,0.6-0.4,0.8-0.6s0.4-0.4,0.4,0v0.4
	c0,0.4-0.6,0.4-0.6,0.8v0.4c0,0.4-0.4,0.2-0.6,0.4c-0.4,0.2-0.7,0.6-0.8,1v0.4c0.1,0.1,0.2,0.3,0.2,0.4h-0.4c-0.4,0-0.2,0.4-0.2,0.6
	c0,0.2-0.4-0.2-0.4,0.2c0,0.2-0.1,0.5-0.2,0.6c-0.1,0.2-0.4,0.4-0.6,0.4h-0.2c-0.1,0-0.2,0.1-0.2,0.2v0.4c0,0.1-0.1,0.2-0.2,0.2
	l-0.4,0.4c0,0.1,0.1,0.2,0.2,0.2h0.6c0.1,0,0.2-0.1,0.2-0.2c0.2,0,0.2-0.2,0.4-0.2c0.4-0.4,0.8-0.6,1.3-1c0.3-0.5,0.6-0.9,1-1.3
	c0.2-0.2,0.4-0.4,0.6-0.4c0.4-0.2,0.4,0.4,0.2,0.6c0,0.2-0.1,0.3-0.2,0.4c-0.1,0-0.2,0.1-0.2,0.2c-0.1,0.1-0.2,0.3-0.2,0.4
	c-0.1,0.3-0.4,0.6-0.6,0.8c-0.2,0.2-0.4,0.2-0.6,0.4c-0.2,0.2-0.2,0.4-0.4,0.6c0,0.2-0.2,0.4,0.2,0.4c0.3,0,0.5-0.2,0.6-0.4
	c0.2-0.2,0.6-0.2,0.8-0.4s0.2-0.4,0.4-0.6c0-0.2,0.2-0.4,0.4-0.4c0.1-0.2,0.2-0.3,0.4-0.4c0-0.2,0-0.2,0.2-0.2s0.6-0.2,0.6,0.2
	c-0.1,0.3-0.2,0.5-0.4,0.6c-0.4,0.4-0.8,0.9-1,1.5c-0.1,0.6-0.3,1.2-0.6,1.7c-0.2,0.2-0.4,0.6-0.6,0.8c-0.2,0.2-0.4,0.2-0.6,0.4
	l-0.6,0.6c-0.2,0.4-0.6,0.7-1,0.8l-0.4,0.4l-0.6,0.6c-0.2,0.2-0.2,0.4-0.4,0.6c-0.2,0.2-0.4,0.4-0.4,0.6h-0.4l-0.2,0.2
	c0,0.2-0.2,0.2-0.2,0.4c-0.1,0.1-0.2,0.3-0.2,0.4c0.2,0.4,1.3-0.6,1.3-0.6l1-1l2.7-2.7c0.8-0.8,1.5-1.6,2.1-2.5
	c0.2-0.4,0.6-0.8,0.8-1.3c0.1-0.4,0.3-0.7,0.6-1c0.2-0.2,0.6,0,0.8-0.2c1-0.4,1.7-1.9,2.3-2.7c1.8-2.6,3.4-5.4,4.6-8.5
	c0.2-0.4,0.2-1.5,1.3-1.7c0.6-0.2,0.4-1.7,0.6-2.1c0.1-0.8,0.3-1.6,0.8-2.3c0.7-1.1,1-2.3,1-3.6c0.2-1.3,2.7-10,2.1-16.7
	c-0.2-1.3-0.2-9.3-2.3-11.9c-1.5-1.5,0.2-3.6-0.6-5.9c-0.2-0.6,0.6-0.8,0.8-1.5c0.6-1.5-0.2-3.2-1.7-3.8c-0.8-0.2-2.1-0.2-2.5-1.3
	c-0.2-0.4,0.6-2.3-0.4-4.2c-0.4-0.8-1.3-3.2-7.7-8.1c-1.9-1.8-3.7-3.6-5.4-5.6c-1.4-1.7-2.9-3.2-4.6-4.6c-0.6-0.4-1.5-2.3-4.2-3.4
	c-0.8-0.4-7-5.2-7.7-5.5c-2.5-0.8-7-4-7.9-4.2c-4.6-1-6.2-3.6-7.9-3.8c-1.3-0.2-4.8-0.4-6.8-2.5c-1-1.1-2.7-1.4-4-0.6
	c-0.8,0.4-3.8-2.1-8.1-1.5c-0.8,0.2-1.7-1.5-4.8-1c-2.9,0.4-5-1.7-6.2-1.9c-1-0.4-7.5-2.1-10.4-1.9h-1.7c-5.8-0.8-11.8-0.8-17.5,0
	c-1.5,0.4-19.5,5-21.2,5.9c-1.5,0.8-5.2,2.1-6.2,2.5c-1.9,0.8-9.6,3.4-10,4.2c-0.2,0.4-1.3,0.4-1.7,0.8c-1.3,1.4-2.9,2.5-4.6,3.2
	c-1.5,0.6-9.1,6.2-10.6,7.2C81.1,267,76.5,270.2,75.9,270.6 M248.9,292.8c0,0.6-0.2,1.2-0.6,1.7h-0.4c-0.3-0.1-0.5-0.2-0.6-0.4
	c-0.1-0.1-0.2-0.3-0.2-0.4c-0.2-0.1-0.2-0.2-0.2-0.4c0-0.2-0.1-0.3-0.2-0.4c0-0.2,0.1-0.3,0.2-0.4c0-0.2,0.2-0.2,0.2-0.4
	c0.1-0.1,0.3-0.2,0.4-0.2C248.1,291.6,248.8,292.1,248.9,292.8 M203.7,348.3c-0.1,0.4-0.3,0.7-0.6,0.8c-0.2,0.2-0.2,0.8-0.6,0.4
	c0.2-0.5,0.4-0.9,0.8-1.3C203.5,348.3,203.7,348.1,203.7,348.3 M205.5,349.2c0,0.2-0.2,0.2-0.2,0.4c-0.3,0.2-0.5,0.5-0.6,0.8
	l-0.2,0.2c-0.4,0.6-0.9,1.1-1.5,1.5c-0.2,0.2-0.6,0.4-0.8,0.6c-0.2,0-0.6,0.6-0.8,0.4c-0.1-0.2-0.1-0.4,0-0.6
	c0.1-0.2,0.2-0.3,0.4-0.4c0.2-0.2,0.2-0.4,0.2-0.6c0.1-0.3,0.2-0.5,0.4-0.6c0.2-0.2,0.5-0.2,0.8-0.2c0.4,0,0.4-0.2,0.6-0.6
	c0-0.1,0.1-0.2,0.2-0.2c0-0.2,0-0.2,0.2-0.2s0.2-0.2,0.4-0.2c0.2-0.2,0.4-0.4,0.6-0.4C205.4,348.9,205.5,349,205.5,349.2 M226,351.5
	v0.4c0,0.2-0.2,0.2-0.4,0.2s-0.4,0.2-0.6,0.2c-0.2,0-0.4,0.2-0.6,0.2c0,0-0.6,0.2-0.4,0.2c0.2,0.2,0,0.2-0.2,0.4
	c-0.2,0.1-0.4,0.1-0.6,0c0-0.3,0-0.6,0.2-0.8c0.2-0.2,0.4-0.2,0.6-0.4c0.2-0.2,0.4-0.2,0.6-0.4c0.2-0.2,0.4-0.4,0.6-0.4
	C225.5,351.2,225.8,351.3,226,351.5 M212.7,352.1c-0.2,0-0.4,0.2-0.4,0c-0.2-0.2,0.2-0.4,0.4-0.4S212.9,352.1,212.7,352.1
	 M213.1,352.5C213.1,352.7,212.9,352.7,213.1,352.5c-0.2,0.1-0.5,0.2-0.6,0.4c-0.2,0.2-0.4,0.2-0.6,0.4c0,0.2-0.2,0.4-0.4,0.4
	s-0.4,0-0.4-0.2s0.2-0.4,0.4-0.4s0.4,0,0.4-0.2c0.1-0.1,0.2-0.3,0.2-0.4H213.1 M199.8,355.4c-0.6,0.6-1.7,1.5-2.3,0.8
	c-0.6-0.6-0.2-1,0.2-1.7c0.8-0.6,2.3-1.5,2.7-1C200.8,354,200,354.9,199.8,355.4 M222.2,355c-0.2,0-0.2-0.4-0.2-0.4v-0.4
	c0-0.2,0.4,0,0.4,0c0.2,0,0.2,0,0.2,0.2s-0.2,0.2-0.2,0.4C222.4,354.6,222.4,354.8,222.2,355 M209.5,355c-0.3-0.2-0.4-0.6-0.2-0.8
	c0-0.2,0.2,0,0.2,0c0.2,0.2,0.2,0.4,0,0.4C209.8,354.8,209.8,355,209.5,355 M208.7,356c0-0.2,0.2-0.2,0.2-0.4l0.2-0.2
	c0-0.2-0.2-0.2-0.4-0.2s-0.3,0.1-0.4,0.2c-0.3,0.2-0.7,0.3-1,0.4h-0.6c-0.2,0-0.4,0-0.4,0.2v0.4c0.2,0.3,0.6,0.5,1,0.4
	c0.2,0,0.6-0.2,0.8-0.2L208.7,356 M226.7,356c0.2,0.2,0,0.2,0,0.2l-0.2,0.2c0,0.1-0.1,0.2-0.2,0.2c-0.2,0-0.2-0.2-0.2-0.4
	s0.2-0.2,0.4-0.2H226.7 M205.8,357.9c-0.2,0-0.4-0.2-0.4-0.4c0.2-0.2,0.6-0.2,0.6,0C206.2,357.7,206,357.9,205.8,357.9 M194.3,361
	c-0.2,0.1-0.4,0.1-0.6-0.1l-0.1-0.1c0-0.2,0.1-0.3,0.2-0.4c0.2-0.2,0.4-0.4,0.6-0.4c0.2-0.2,0.4-0.2,0.2,0.2
	c-0.1,0.2-0.2,0.3-0.4,0.4L194.3,361 M224.6,362.9c0.2,0,0,0.8-0.2,0.8C223.9,363.8,224.3,362.9,224.6,362.9 M222.2,363.6
	c0.1,0.6-0.1,1.2-0.6,1.5c-0.2,0.2-0.5,0.3-0.8,0.2c-0.3-0.1-0.5-0.2-0.6-0.4c-0.1-0.5,0.2-1,0.6-1.3c0.2-0.2,0.4-0.2,0.6-0.2
	C221.8,363.4,222.2,363.4,222.2,363.6 M220.6,366.1l-0.2,0.2c-0.1,0-0.2,0.1-0.2,0.2h-0.4v-0.2l0.2-0.2c0.1-0.1,0.3-0.1,0.4,0
	C220.4,365.9,220.4,366.1,220.6,366.1 M166.3,274.8c-0.1,0.5-0.3,1-0.6,1.5c-0.2,0.2-0.2,0.4-0.4,0.6s-0.4,0.2-0.6,0.4
	c-0.3,0.2-0.7,0.2-1,0c-0.4-0.4,0-0.8,0-1.3c-0.2-0.7,0-1.4,0.4-1.9c0.3-0.5,0.6-1,1-1.5c0.2-0.3,0.6-0.4,0.8-0.2
	C166.6,272.9,166.3,274,166.3,274.8 M157.5,278c0.1,0.5,0.3,1,0.6,1.5c0.4,0.4,0.5,1,0.2,1.5c-0.6,0-0.4,0.4-0.6,0.4
	c-0.4,0-1.9,0-2.3-1c-0.2-0.3-0.2-0.7-0.2-1c0.1-0.8,0.1-1.5,0-2.3c0-0.6,0.8-0.6,1.3-0.4C156.8,277,157.2,277.5,157.5,278
	 M175.4,279c-0.2,0.6-1.3,0.8-0.8,1.7c0.2,0.4-0.4,0.6-0.6,0.6c-0.8,0.2-1.7,1-2.5,0.6c-0.4-0.6-1.5-0.8-1.5-1.7
	c0.4-0.8,1.3-0.6,1.7-1.3C172,279,175,278.4,175.4,279z M154.2,285c0,0.4-0.1,0.7-0.2,1c-0.4,0.3-1,0.5-1.5,0.4
	c-0.6,0.1-1.1,0.1-1.7,0c-0.5-0.1-0.9-0.3-1.3-0.6c-0.2-0.4-0.2-0.8-0.2-1.3c0.2-0.4,0.6-0.6,1-0.6c0.5-0.1,1-0.1,1.5,0
	c0.7,0.2,1.4,0.3,2.1,0.4C154.2,284.4,154.2,284.8,154.2,285 M170.6,289.4c-1.4,2.6-3.9,4.5-6.8,5.2c-1.5,0.2-3.2,0.8-4.4-0.2
	c-0.4-0.4-0.8-0.6-1.3-0.8c-0.5,0-0.9-0.2-1.3-0.4c-0.2-0.4-0.3-0.8-0.2-1.3c0-0.2-0.2-0.6-0.2-0.8c-0.3-0.4-0.6-0.9-0.6-1.5
	c-0.1-0.7,0-1.5,0.4-2.1c0.2-0.2,0.8-1.5,0.2-1.5c-0.2,0-0.2-0.6,0.2-1c0.6-0.4,0.8-2.5,2.9-3.2c1.5-0.4,2.5-2.3,4.2-2.3
	c0.8-0.1,1.6-0.1,2.3,0.2c0.7,0.1,1.4,0.5,1.9,1c0.2,0.4,1.5,1,1.9,1.9c0.5,0.5,0.9,1.1,1.3,1.7c0,0.4,0.4,1.5,0.4,1.9
	C171,286.9,170.8,289,170.6,289.4 M166.6,285.2c-0.3-0.5-0.7-0.9-1.3-1c-0.5-0.2-1-0.2-1.5-0.2c-1-0.4-1.7,0.6-2.5,0.8
	c-0.4,0.1-0.7,0.3-0.8,0.6c-0.8,0.6-1.5,2.7-1.7,3.2c-0.2,0.8,0.2,1.6,1,1.8c0.1,0,0.2,0.1,0.3,0.1c0.7,0,1.4,0,2.1-0.2
	c1-0.4,1.9-1,2.5-1.8c0.5-0.6,0.9-1.2,1.3-1.9C166.8,285.7,166.6,285.3,166.6,285.2 M176.4,289.6c0.3,0,0.6,0.3,0.6,0.6
	c0,0.4-0.4,0.2-0.6,0.2c-0.4,0.2-0.2,0.8-0.8,0.8c-0.2,0-0.6,0.2-0.8,0.2c-0.7,0-1.4,0-2.1-0.2c-0.2-0.1-0.3-0.2-0.4-0.4
	c-0.4-0.1-0.6-0.5-0.6-0.8c0-0.2,0-0.2-0.2-0.2c-0.2-0.2,0-0.6,0.4-0.8h0.6c0.6-0.2,1.3-0.2,1.9,0c0.3,0,0.6,0,0.8,0.2
	C175.6,289.4,176,289.5,176.4,289.6 M153.8,293.6l0.2,0.2c0.2,0.4-0.2,0.6-0.4,0.8s-0.6,0.4-0.8,0.6c-0.3,0.2-0.7,0.4-1,0.4h-1.3
	c-0.5,0-0.8-0.4-0.8-0.8c0.2-1.5,2.1-1.7,3.2-2.3c0.5-0.1,1,0.2,1,0.7C153.8,293.4,153.8,293.5,153.8,293.6 M168.7,296
	c0.3,0.3,0.6,0.6,0.8,1s0.2,0.8,0.4,1.3c0.2,0.6-0.6,0.6-0.8,1c0,0.1-0.1,0.2-0.2,0.2c-0.3,0-0.6,0-0.8-0.2c-0.3,0-0.7-0.1-0.8-0.4
	c-0.2-0.2-0.3-0.5-0.2-0.8c0-0.4-0.1-0.7-0.2-1c0-0.2-0.2-0.2-0.2-0.4v-0.4c-0.2-0.4,0.2-0.4,0.2-0.8c0-0.2,0-0.4,0.2-0.4
	c0.3,0,0.6,0,0.8,0.2C168,296.1,168.5,296.1,168.7,296 M161,297.5c0.4,0.6,0.4,1.3,0,1.9c-0.2,0.4-0.6,1-0.8,1.5
	c-0.2,0.2-0.2,0.4-0.4,0.6c-0.4,0.1-0.8,0-1-0.4c0-0.2-0.1-0.3-0.2-0.4c0-1.5,1-3.6,1.7-3.6C160.4,296.9,160.8,297.3,161,297.5
	 M207.9,369.7c-0.4,0.2,0,1-0.2,1.5c-0.2,0.3-0.6,0.5-1,0.4c-0.4-0.2-0.2-0.4-0.2-0.8v-0.4c0.1-0.1,0.1-0.3,0-0.4
	c-0.1,0-0.2-0.1-0.2-0.2v-0.6h0.2c0.2,0,0.3,0.1,0.4,0.2h0.6c0.1,0,0.2-0.1,0.2-0.2c0.2,0,0.4,0,0.4,0.2
	C208.1,369.3,208.1,369.7,207.9,369.7l-0.2-0.2C208.1,369.7,207.9,369.7,207.9,369.7 M197.7,361.7c-0.2,0-0.2,0.2-0.4,0.2
	s-0.2-0.2,0-0.4v-0.4c0.2-0.4,0.8,0,0.8-0.4c0-0.2,0.4-0.8,0.6-0.6c0,0.3,0,0.6-0.2,0.8c0,0.2-0.1,0.3-0.2,0.4
	c-0.2,0.1-0.3,0.2-0.4,0.4H197.7 M207.2,347.5l-0.2,0.2c0,0.1,0.1,0.2,0.2,0.2c0,0,0.4-0.2,0.2-0.4
	C207.5,347.3,207.2,347.5,207.2,347.5 M217.2,350.2c0-0.2-0.8,0-0.6,0.2C216.4,350.6,217.2,350.4,217.2,350.2 M218.3,346.9
	c-0.2,0-0.2-0.4-0.4,0c0,0.2-0.2,0.4,0,0.4c0.2,0.2,0.6,0.2,0.6,0c0.2-0.2,0.4-0.4,0.2-0.4H218.3 M213.7,345.6
	c-0.2,0.1-0.5,0.2-0.6,0.4c-0.4,0.4-0.8,0.8-1,1.3l-0.6,0.6c0,0-0.2,0.2,0,0.2s0.5-0.1,0.6-0.2c0.2,0,0.2-0.2,0.4-0.2
	c0.2,0,0.2-0.2,0.4-0.2l0.2-0.2l0.2-0.2l0.2-0.2c0.2-0.2,0.2-0.4,0.4-0.6C214.1,346,214,345.7,213.7,345.6
	C213.8,345.6,213.7,345.6,213.7,345.6 M221.4,345.4H221c-0.4,0-0.4-0.2-0.6,0.2c-0.1,0.3-0.1,0.7,0,1c0.3-0.1,0.5-0.3,0.6-0.6
	C221.4,346,221.8,345.4,221.4,345.4 M222.7,347.9c0.2,0-0.2,0.4-0.4,0.6c-0.3,0.1-0.6,0.2-0.8,0.2c0,0-0.4,0.2-0.4,0v-0.4
	c0-0.2,0.2-0.2,0.4-0.2s0.2-0.2,0.4-0.2C222.1,347.8,222.4,347.8,222.7,347.9 M208.7,349.4c0.4,0,0.2,0.4,0,0.4l-0.4,0.4
	C207.7,350.6,208.3,349.6,208.7,349.4 M207.2,350.8c-0.2-0.2-0.6,0.4-0.8,0.6s-0.8,0.4-0.4,0.8c0.3,0.1,0.7,0,0.8-0.3v-0.1
	C207.1,351.6,207.3,351.3,207.2,350.8 M219.7,351.3c0,0.1-0.1,0.2-0.2,0.2v0.2c0,0.1,0.1,0.2,0.2,0.2h0.2c0.2,0,0.2-0.2,0.2-0.4
	C220,351.5,219.8,351.4,219.7,351.3C220,351.3,219.7,351.1,219.7,351.3 M219.7,352.5c-0.8-0.1-1.5,0.1-2.1,0.6c-0.4,0.4,0,1,0.6,1.3
	c0.4,0,0.7,0,1-0.2c0.2-0.2,0.2-0.6,0.4-0.8c0.2-0.1,0.5-0.2,0.6-0.4C220.3,352.7,220,352.5,219.7,352.5 M229.1,355.6
	c-0.6,0.2-1,0.7-1,1.3C228.2,356.8,229.5,355.3,229.1,355.6 M217.8,354.6c-0.2,0-0.8-0.4-0.8,0C217,355.3,217.8,355,217.8,354.6
	 M189.4,361.9c-0.3-0.1-0.6,0-0.8,0.2c-0.2,0-0.2,0.2-0.4,0.2h-0.4c-0.2,0.2,0,0.2,0.2,0.2h0.4c0.3,0.1,0.7-0.1,0.8-0.4
	C189.4,362.1,189.6,362.1,189.4,361.9 M186.4,363.1c-0.2,0.1-0.4,0.2-0.6,0.2c-0.2,0-0.2,0-0.2,0.2c-0.1,0.1-0.1,0.3,0,0.4h0.8
	C186.7,363.7,186.7,363.4,186.4,363.1 M199.2,361.4c-0.2,0.1-0.3,0.2-0.4,0.4l-0.2,0.2c0.2,0.2,0.2,0,0.4,0s0.3-0.1,0.4-0.2
	c0.2,0,0.2-0.2,0.4-0.2c0.3-0.2,0.5-0.4,0.6-0.6c0-0.4-0.6,0-0.6,0C199.6,361.2,199.4,361.2,199.2,361.4 M199.6,364
	c0.2,0.3,0.4,0.5,0.6,0.6c0.2,0,0.8,0.2,0.8-0.2c-0.1-0.1-0.2-0.3-0.2-0.4c0-0.2-0.2-0.2-0.4-0.2H200c-0.2-0.2-0.4-0.3-0.6-0.4
	C199.4,363.5,199.5,363.8,199.6,364 M201,363.3c0,0.2,0.1,0.3,0.2,0.4c0.6,0.4,0.4-0.2,0.6-0.6c0-0.2,0.4-0.4,0.4-0.6
	C202.3,362.1,201,362.7,201,363.3 M202.3,364.6c0.2,0,0.2-0.2,0.4-0.2c0.2-0.2,0.4-0.2,0.6-0.4c0,0,0.2-0.4,0-0.4
	c-0.3,0.2-0.5,0.4-0.6,0.6c-0.5,0.2-0.9,0.5-1.3,0.8c0,0.2,0.2,0.2,0.4,0.2s0.2,0,0.2-0.2C202.1,364.6,202.3,364.6,202.3,364.6
	 M202.7,364.8c-0.3,0.1-0.6,0.3-0.8,0.4l-0.2,0.2c0,0.1,0.1,0.2,0.2,0.2c0.1,0.2,0.2,0.2,0.4,0.2c0.1,0,0.2-0.1,0.2-0.2v-0.2
	l0.2-0.2C202.9,365.1,202.9,364.9,202.7,364.8 M201.9,365.9C201.7,365.9,201.7,366.1,201.9,365.9c-0.2,0-0.4,0-0.4,0.2
	c-0.2,0-0.4,0.2-0.2,0.4h0.6l0.2-0.2C201.9,366.3,201.9,366.3,201.9,365.9 M210,369.7c-0.2,0-0.4,0-0.4,0.2s-0.2,0.4,0,0.4
	c0.6-0.2,1.2-0.4,1.7-0.8C210.8,369.4,210.3,369.5,210,369.7 M200.4,369.3c-0.3,0.2-0.5,0.5-0.6,0.8c0,0.4,0.4,0.4,0.8,0.4
	c0.9,0.3,1.8,0.1,2.5-0.4c0.3-0.4,0.4-0.8,0.2-1.3c-0.2-0.4-0.6,0-1,0C201.7,368.9,201.1,368.5,200.4,369.3 M214.4,368.1
	c0,0.4,0.2,0.4,0.2,0.4c0.3,0.1,0.6,0.2,0.8,0.4c0.1,0.2,0.2,0.3,0.4,0.4c0.2,0,0.4-0.2,0.4-0.4v-0.4c0-0.2,0.2-0.2,0-0.2
	c-0.1-0.2-0.4-0.4-0.6-0.4h-0.6c-0.2,0-0.3,0.1-0.4,0.2C214.8,368.1,214.6,367.8,214.4,368.1"/>
</svg>
