<?xml version="1.0" encoding="UTF-8" standalone="no"?>
<!-- Created with Inkscape (http://www.inkscape.org/) -->

<svg
   xmlns:dc="http://purl.org/dc/elements/1.1/"
   xmlns:cc="http://creativecommons.org/ns#"
   xmlns:rdf="http://www.w3.org/1999/02/22-rdf-syntax-ns#"
   xmlns:svg="http://www.w3.org/2000/svg"
   xmlns="http://www.w3.org/2000/svg"
   xmlns:sodipodi="http://sodipodi.sourceforge.net/DTD/sodipodi-0.dtd"
   xmlns:inkscape="http://www.inkscape.org/namespaces/inkscape"
   width="68.023651mm"
   height="38.079926mm"
   viewBox="0 0 241.02869 134.92887"
   id="svg4378"
   version="1.1"
   inkscape:version="0.91 r13725"
   sodipodi:docname="WSIB cspaat Ontario logo.svg">
  <defs
     id="defs4380">
    <clipPath
       clipPathUnits="userSpaceOnUse"
       id="clipPath3428">
      <path
         d="m 0,0 1296,0 0,1728 L 0,1728 0,0 Z"
         id="path3430"
         inkscape:connector-curvature="0" />
    </clipPath>
    <clipPath
       clipPathUnits="userSpaceOnUse"
       id="clipPath3396">
      <path
         d="m 0,0 1296,0 0,1728 L 0,1728 0,0 Z"
         id="path3398"
         inkscape:connector-curvature="0" />
    </clipPath>
    <clipPath
       clipPathUnits="userSpaceOnUse"
       id="clipPath3382">
      <path
         d="m 0,0 1296,0 0,1728 L 0,1728 0,0 Z"
         id="path3384"
         inkscape:connector-curvature="0" />
    </clipPath>
  </defs>
  <sodipodi:namedview
     id="base"
     pagecolor="#ffffff"
     bordercolor="#666666"
     borderopacity="1.0"
     inkscape:pageopacity="0.0"
     inkscape:pageshadow="2"
     inkscape:zoom="4"
     inkscape:cx="179.90021"
     inkscape:cy="37.096811"
     inkscape:document-units="px"
     inkscape:current-layer="layer1"
     showgrid="false"
     fit-margin-top="0"
     fit-margin-left="0"
     fit-margin-right="0"
     fit-margin-bottom="0"
     inkscape:window-width="1366"
     inkscape:window-height="705"
     inkscape:window-x="-8"
     inkscape:window-y="-8"
     inkscape:window-maximized="1" />
  <metadata
     id="metadata4383">
    <rdf:RDF>
      <cc:Work
         rdf:about="">
        <dc:format>image/svg+xml</dc:format>
        <dc:type
           rdf:resource="http://purl.org/dc/dcmitype/StillImage" />
        <dc:title></dc:title>
      </cc:Work>
    </rdf:RDF>
  </metadata>
  <g
     inkscape:label="Layer 1"
     inkscape:groupmode="layer"
     id="layer1"
     transform="translate(-273.77137,-159.18349)">
    <path
       inkscape:connector-curvature="0"
       id="path3376"
       style="fill:#00a851;fill-opacity:1;fill-rule:nonzero;stroke:none"
       d="m 323.52137,218.97561 -10.93,0 -7.47625,-27.4025 -7.47375,27.4025 -11.01125,0 -12.85875,-41.39125 11.25125,0 7.23375,28.93875 7.555,-28.93875 10.6075,0 7.555,28.93875 7.23375,-28.93875 11.25125,0 -12.9375,41.39125 z" />
    <g
       style="fill:#00a851;fill-opacity:1"
       clip-path="url(#clipPath3382)"
       id="g3380"
       transform="matrix(1.25,0,0,-1.25,-424.88133,411.65511)">
      <g
         style="fill:#00a851;fill-opacity:1"
         transform="translate(623.693,153.3706)"
         id="g3386">
        <path
           inkscape:connector-curvature="0"
           id="path3388"
           style="fill:#00a851;fill-opacity:1;fill-rule:nonzero;stroke:none"
           d="m 0,0 c -8.422,0 -14.66,4.435 -15.687,11.575 l 8.613,0 C -5.916,8.744 -2.508,7.716 0,7.716 c 3.406,0 5.981,1.028 5.981,2.959 0,1.862 -1.157,2.637 -6.948,3.533 -5.913,0.899 -13.822,2.51 -13.822,9.902 0,5.21 4.566,10.61 14.143,10.61 7.59,0 13.249,-4.113 14.34,-10.347 l -8.809,0 c -0.512,1.537 -2.377,2.761 -5.531,2.761 -3.918,0 -5.525,-1.413 -5.525,-2.639 0,-1.731 2.443,-2.312 6.557,-2.955 C 8.613,20.192 14.531,18.388 14.531,11.191 14.531,4.631 8.489,0 0,0" />
      </g>
    </g>
    <path
       d="m 388.02247,218.97511 -10.6075,0 0,-41.39125 10.6075,0 0,41.39125 z"
       style="fill:#00a851;fill-opacity:1;fill-rule:nonzero;stroke:none"
       id="path3390"
       inkscape:connector-curvature="0" />
    <g
       style="fill:#00a851;fill-opacity:1"
       transform="matrix(1.25,0,0,-1.25,417.50142,219.85848)"
       id="g3400">
      <path
         inkscape:connector-curvature="0"
         id="path3402"
         style="fill:#00a851;fill-opacity:1;fill-rule:nonzero;stroke:none"
         d="m 0,0 c -3.987,0 -7.522,1.542 -10.093,4.242 l 0,-3.536 -8.168,0 0,47.834 8.553,0 0,-17.872 c 2.507,2.443 5.913,3.858 9.708,3.858 8.678,0 15.751,-7.459 15.751,-17.295 C 15.751,7.459 8.678,0 0,0 m -1.222,26.681 c -4.695,0 -8.486,-4.243 -8.486,-9.517 0,-5.141 3.791,-9.321 8.486,-9.321 4.694,0 8.486,4.054 8.486,9.321 0,5.402 -3.792,9.517 -8.486,9.517" />
    </g>
    <g
       style="fill:#00a851;fill-opacity:1"
       transform="matrix(1.25,0,0,-1.25,376.61904,166.09511)"
       id="g3404">
      <path
         inkscape:connector-curvature="0"
         id="path3406"
         style="fill:#00a851;fill-opacity:1;fill-rule:nonzero;stroke:none"
         d="M 0,0 C 0,2.696 2.187,4.886 4.885,4.886 7.578,4.886 9.767,2.696 9.767,0 9.767,-2.698 7.578,-4.882 4.885,-4.882 2.187,-4.882 0,-2.698 0,0" />
    </g>
    <g
       style="fill:#536371;fill-opacity:1"
       transform="matrix(1.25,0,0,-1.25,395.65542,287.64236)"
       id="g3408">
      <path
         inkscape:connector-curvature="0"
         id="path3410"
         style="fill:#536371;fill-opacity:1;fill-rule:nonzero;stroke:none"
         d="m 0,0 c 0,-2.89 -2.046,-5.176 -4.847,-5.176 -2.815,0 -4.858,2.286 -4.858,5.176 0,2.871 2.043,5.159 4.858,5.159 C -2.046,5.159 0,2.871 0,0 m -1.904,0 c 0,1.841 -1.316,3.373 -2.943,3.373 -1.643,0 -2.958,-1.532 -2.958,-3.373 0,-1.858 1.315,-3.389 2.958,-3.389 1.627,0 2.943,1.531 2.943,3.389" />
    </g>
    <path
       inkscape:connector-curvature="0"
       id="path3414"
       style="fill:#536371;fill-opacity:1;fill-rule:nonzero;stroke:none"
       d="m 416.98622,293.89711 -2.83625,0 -5.05375,-8.825 0,8.825 -2.36,0 0,-12.39875 2.84125,0 5.03625,8.8275 0,-8.8275 2.3725,0 0,12.39875 z" />
    <path
       inkscape:connector-curvature="0"
       id="path3418"
       style="fill:#536371;fill-opacity:1;fill-rule:nonzero;stroke:none"
       d="m 433.26072,283.69351 0,10.20375 -2.35875,0 0,-10.20375 -3.3275,0 0,-2.195 9.00625,0 0,2.195 -3.32,0 z" />
    <path
       inkscape:connector-curvature="0"
       id="path3422"
       style="fill:#536371;fill-opacity:1;fill-rule:nonzero;stroke:none"
       d="m 448.41559,291.41491 -0.84375,2.4825 -2.49875,0 4.32625,-12.39875 2.985,0 4.32125,12.39875 -2.50125,0 -0.84125,-2.4825 -4.9475,0 z m 2.4625,-7.2925 -1.72625,5.095 3.4625,0 -1.73625,-5.095 z" />
    <g
       style="fill:#536371;fill-opacity:1"
       clip-path="url(#clipPath3428)"
       id="g3426"
       transform="matrix(1.25,0,0,-1.25,-424.88133,411.65511)">
      <g
         style="fill:#536371;fill-opacity:1"
         transform="translate(721.5607,94.2064)"
         id="g3432">
        <path
           inkscape:connector-curvature="0"
           id="path3434"
           style="fill:#536371;fill-opacity:1;fill-rule:nonzero;stroke:none"
           d="m 0,0 -1.919,0 c -0.114,0.273 -0.2,0.63 -0.2,1.087 l 0,1.515 c 0,0.842 -0.401,1.23 -1.292,1.23 l -2.568,0 0,-3.832 -1.89,0 0,9.919 4.535,0 c 2.07,0 3.399,-1.101 3.399,-2.957 0,-1.134 -0.528,-1.86 -1.384,-2.26 0.695,-0.385 1.087,-1.07 1.087,-2.116 l 0,-1.385 C -0.232,0.842 -0.118,0.284 0,0 m -3.293,5.532 c 0.244,0 1.472,0.098 1.472,1.328 0,0.33 0,1.303 -1.513,1.303 l -2.645,0 0,-2.631 2.686,0 z" />
      </g>
    </g>
    <path
       d="m 490.91997,293.89761 -2.36,0 0,-12.39875 2.36,0 0,12.39875 z"
       style="fill:#536371;fill-opacity:1;fill-rule:nonzero;stroke:none"
       id="path3436"
       inkscape:connector-curvature="0" />
    <g
       style="fill:#536371;fill-opacity:1"
       id="g3446"
       transform="matrix(1.25,0,0,-1.25,514.14279,287.64236)">
      <path
         d="m 0,0 c 0,-2.89 -2.045,-5.176 -4.847,-5.176 -2.818,0 -4.858,2.286 -4.858,5.176 0,2.871 2.04,5.159 4.858,5.159 C -2.045,5.159 0,2.871 0,0 m -1.903,0 c 0,1.841 -1.311,3.373 -2.944,3.373 -1.644,0 -2.959,-1.532 -2.959,-3.373 0,-1.858 1.315,-3.389 2.959,-3.389 1.633,0 2.944,1.531 2.944,3.389"
         style="fill:#536371;fill-opacity:1;fill-rule:nonzero;stroke:none"
         id="path3448"
         inkscape:connector-curvature="0" />
    </g>
    <g
       style="fill:#00a851;fill-opacity:1"
       id="g3450"
       transform="matrix(1.25,0,0,-1.25,298.35029,272.16023)">
      <path
         d="m 0,0 c -9.964,0 -17.1,7.718 -17.1,17.297 0,9.58 7.136,17.425 17.1,17.425 7.975,0 14.019,-4.501 15.944,-11.962 l -9.061,0 C 5.724,25.011 3.087,26.944 0,26.944 c -4.692,0 -8.486,-4.378 -8.486,-9.711 0,-5.212 3.794,-9.515 8.486,-9.515 3.151,0 5.854,1.927 6.947,4.24 l 9.062,0 C 14.081,4.439 8.038,0 0,0"
         style="fill:#00a851;fill-opacity:1;fill-rule:nonzero;stroke:none"
         id="path3452"
         inkscape:connector-curvature="0" />
    </g>
    <g
       style="fill:#00a851;fill-opacity:1"
       id="g3454"
       transform="matrix(1.25,0,0,-1.25,339.54817,272.16023)">
      <path
         d="m 0,0 c -8.426,0 -14.658,4.439 -15.687,11.577 l 8.613,0 C -5.913,8.744 -2.511,7.718 0,7.718 c 3.406,0 5.979,1.026 5.979,2.955 0,1.864 -1.161,2.637 -6.944,3.538 -5.916,0.9 -13.822,2.506 -13.822,9.901 0,5.21 4.565,10.61 14.143,10.61 7.589,0 13.248,-4.115 14.34,-10.355 l -8.811,0 c -0.512,1.545 -2.377,2.765 -5.529,2.765 -3.922,0 -5.527,-1.416 -5.527,-2.635 0,-1.737 2.442,-2.315 6.558,-2.957 C 8.617,20.188 14.53,18.386 14.53,11.187 14.53,4.629 8.488,0 0,0"
         style="fill:#00a851;fill-opacity:1;fill-rule:nonzero;stroke:none"
         id="path3456"
         inkscape:connector-curvature="0" />
    </g>
    <g
       style="fill:#00a851;fill-opacity:1"
       id="g3458"
       transform="matrix(1.25,0,0,-1.25,384.97942,272.08161)">
      <path
         d="m 0,0 c -3.794,0 -7.201,1.479 -9.709,3.924 l 0,-17.94 -8.549,0 0,47.839 8.166,0 0,-3.473 c 2.571,2.636 6.103,4.243 10.092,4.243 8.681,0 15.753,-7.459 15.753,-17.229 C 15.753,7.521 8.681,0 0,0 m -1.221,26.685 c -4.694,0 -8.488,-4.182 -8.488,-9.321 0,-5.21 3.794,-9.454 8.488,-9.454 4.694,0 8.488,4.048 8.488,9.454 0,5.333 -3.794,9.321 -8.488,9.321"
         style="fill:#00a851;fill-opacity:1;fill-rule:nonzero;stroke:none"
         id="path3460"
         inkscape:connector-curvature="0" />
    </g>
    <g
       style="fill:#00a851;fill-opacity:1"
       id="g3462"
       transform="matrix(1.25,0,0,-1.25,435.93917,267.33548)">
      <path
         d="m 0,0 c -2.183,-2.317 -5.53,-3.732 -10.157,-3.732 -7.009,0 -13.437,3.538 -13.437,10.739 0,7.459 6.237,9.388 13.566,10.031 5.529,0.514 9.451,1.154 9.451,3.854 0,1.739 -2.254,3.154 -6.045,3.154 -3.021,0 -6.497,-1.351 -7.263,-4.18 l -8.491,0 c 0.837,6.301 6.883,10.996 15.56,10.996 13.442,0 14.47,-8.68 14.47,-11.318 l 0,-17.23 c 0,-1.608 0.514,-4.113 0.961,-5.401 l -7.778,0 C 0.451,-2.253 0.193,-1.224 0,0 m -0.257,12.857 c -1.8,-1.158 -4.561,-1.731 -8.036,-2.119 -4.181,-0.45 -6.754,-1.355 -6.754,-3.793 0,-1.869 2.188,-3.154 5.597,-3.154 5.08,0 9.193,1.739 9.193,5.981 l 0,3.085 z"
         style="fill:#00a851;fill-opacity:1;fill-rule:nonzero;stroke:none"
         id="path3464"
         inkscape:connector-curvature="0" />
    </g>
    <g
       style="fill:#00a851;fill-opacity:1"
       id="g3466"
       transform="matrix(1.25,0,0,-1.25,479.30155,267.33548)">
      <path
         d="m 0,0 c -2.188,-2.317 -5.53,-3.732 -10.162,-3.732 -7.004,0 -13.438,3.538 -13.438,10.739 0,7.459 6.236,9.388 13.567,10.031 5.528,0.514 9.452,1.154 9.452,3.854 0,1.739 -2.251,3.154 -6.044,3.154 -3.023,0 -6.491,-1.351 -7.262,-4.18 l -8.491,0 c 0.836,6.301 6.882,10.996 15.561,10.996 13.438,0 14.467,-8.68 14.467,-11.318 l 0,-17.23 c 0,-1.608 0.514,-4.113 0.969,-5.401 l -7.787,0 C 0.451,-2.253 0.188,-1.224 0,0 m -0.259,12.857 c -1.799,-1.158 -4.564,-1.731 -8.037,-2.119 -4.18,-0.45 -6.751,-1.355 -6.751,-3.793 0,-1.869 2.186,-3.154 5.593,-3.154 5.076,0 9.195,1.739 9.195,5.981 l 0,3.085 z"
         style="fill:#00a851;fill-opacity:1;fill-rule:nonzero;stroke:none"
         id="path3468"
         inkscape:connector-curvature="0" />
    </g>
    <g
       style="fill:#00a851;fill-opacity:1"
       id="g3470"
       transform="matrix(1.25,0,0,-1.25,514.80004,271.11286)">
      <path
         d="m 0,0 c -9.713,-1.028 -14.858,4.819 -14.858,13.887 l 0,11.638 -3.98,0 0,7.523 3.98,0 0,8.424 8.489,0 0,-8.424 5.98,0 0,-7.523 -5.98,0 0,-11.701 C -6.369,9.193 -4.242,7.456 0,7.716 L 0,0 Z"
         style="fill:#00a851;fill-opacity:1;fill-rule:nonzero;stroke:none"
         id="path3472"
         inkscape:connector-curvature="0" />
    </g>
  </g>
</svg>
